<?xml version="1.0" encoding="utf-8"?>
<!-- Generator: Adobe Illustrator 22.0.1, SVG Export Plug-In . SVG Version: 6.00 Build 0)  -->
<svg version="1.1" id="Layer_1" xmlns="http://www.w3.org/2000/svg" xmlns:xlink="http://www.w3.org/1999/xlink" x="0px" y="0px"
	 viewBox="0 0 333.2 350.8" style="enable-background:new 0 0 333.2 350.8;" xml:space="preserve">
<style type="text/css">
	.st0{fill:none;stroke:#000000;stroke-width:4;stroke-miterlimit:10;}
	.st1{fill:none;stroke:#000000;stroke-width:4;stroke-linecap:round;stroke-linejoin:round;stroke-miterlimit:10;}
	.st2{clip-path:url(#SVGID_2_);}
	.st3{fill:#FFFFFF;}
	.st4{fill-rule:evenodd;clip-rule:evenodd;}
	.st5{fill-rule:evenodd;clip-rule:evenodd;fill:#FFFFFF;}
	.st6{clip-path:url(#SVGID_4_);fill:#FFFFFF;}
</style>
<g>
	<g>
		<path class="st3" d="M29.9,159.5c-1.7,0-3.2-1.1-3.8-2.7l-3.1-9.3c0-0.1-0.1-0.2-0.1-0.3c-3.9-15.5-4.3-43.8,7.2-72.5
			c0-0.1,0.1-0.2,0.1-0.2c23.9-50.1,66.5-62.1,96.4-66.8c25-3.9,62.2,3.2,85,24.4c18.8,17.4,38.3,48.7,43.2,56.6
			c12,0.8,61,5.5,67.1,7c1.7,0.4,3.1,0.7,4.1,0.9c2.2,0.4,4.2,0.8,5.4,2.8c1.2,2,0.5,4,0.3,4.6c0,0.1-0.1,0.3-0.1,0.4
			c-1.1,4.1-3.3,7.8-19.6,13c-22.7,7.5-112.4,9.8-123.2,10.1c-3.5,1.7-17.1,8.1-43.6,14.9C115,150,33.8,159.1,30.3,159.5
			C30.2,159.5,30,159.5,29.9,159.5z M30.6,145l2,6.1c15.7-1.8,84.2-9.9,110.6-16.7c29.4-7.5,42.5-14.6,42.7-14.6
			c0.6-0.3,1.2-0.5,1.8-0.5c1,0,99.3-2.2,121.8-9.7c8.2-2.6,11.6-4.5,13.1-5.7c-0.8-0.2-1.7-0.4-2.7-0.6c-5.7-1.4-63.5-6.9-67.5-6.9
			c-1.4,0-2.7-0.7-3.4-2c-0.2-0.4-22.5-37.9-42.9-56.7c-20.8-19.2-55.9-25.8-78.4-22.3c-28.1,4.4-68,15.6-90.3,62.2
			C26.7,104.5,27.1,130.7,30.6,145z"/>
		<path class="st3" d="M187.8,127.4c-1.7,0-3.2-1.1-3.8-2.7c-0.7-2.1,0.4-4.4,2.5-5.1c31.5-10.6,63.4-30.3,63.8-30.5
			c1.9-1.2,4.3-0.6,5.5,1.3c1.2,1.9,0.6,4.3-1.3,5.5c-1.3,0.8-33,20.5-65.4,31.3C188.7,127.3,188.3,127.4,187.8,127.4z"/>
		<path class="st3" d="M191.7,56c-1.3,0-2.5-0.6-3.3-1.7c-1.3-1.8-0.8-4.3,1-5.6c0.6-0.5,15.9-11.2,21.1-13.9c1.9-1,4.4-0.3,5.4,1.6
			c1,1.9,0.3,4.4-1.6,5.4c-4.7,2.5-20.1,13.3-20.3,13.4C193.3,55.8,192.5,56,191.7,56z"/>
		<path class="st3" d="M24.6,121.7c-0.3,0-0.5,0-0.8-0.1c-2.2-0.4-3.6-2.5-3.1-4.7c0.4-1.8,0.7-3.6,1.1-5.5
			C28,78,37.6,27.4,141.3,27.4c24.3,0,48.2,12.8,69,37c15.5,18,23.8,35.8,24.1,36.5c0.9,2,0,4.4-2,5.3c-2,0.9-4.4,0.1-5.3-2
			c-0.3-0.7-32.5-68.9-85.8-68.9c-97.1,0-105.6,44.8-111.8,77.5c-0.4,1.9-0.7,3.8-1.1,5.6C28.1,120.4,26.5,121.7,24.6,121.7z"/>
		<path class="st3" d="M135.5,101.2c-4.8,0-8.7-3.9-8.7-8.7s3.9-8.7,8.7-8.7s8.7,3.9,8.7,8.7S140.3,101.2,135.5,101.2z M135.5,91.7
			c-0.4,0-0.7,0.3-0.7,0.7c0,0.4,0.3,0.7,0.7,0.7c0.4,0,0.7-0.3,0.7-0.7C136.2,92.1,135.9,91.7,135.5,91.7z"/>
		<path class="st3" d="M95.8,110.6c-4.8,0-8.7-3.9-8.7-8.7s3.9-8.7,8.7-8.7s8.7,3.9,8.7,8.7S100.6,110.6,95.8,110.6z M95.8,101.2
			c-0.4,0-0.7,0.3-0.7,0.7c0,0.4,0.3,0.7,0.7,0.7c0.4,0,0.7-0.3,0.7-0.7C96.5,101.5,96.2,101.2,95.8,101.2z"/>
		<path class="st3" d="M38.2,158.5c-1.8,0-3.4-1.2-3.9-3c-3.7-14.6-13.3-33.4-13.3-33.6c-1-2-0.2-4.4,1.8-5.4c2-1,4.4-0.2,5.4,1.8
			c0.4,0.8,10,19.8,14,35.3c0.5,2.1-0.7,4.3-2.9,4.9C38.9,158.5,38.6,158.5,38.2,158.5z"/>
		<path class="st3" d="M156.1,342.9c-3.7,0-10.5-2.8-23.4-15.7c-20.4-20.4-65.6-58.9-72.2-61.6c-1.5-0.6-2.5-2.1-2.5-3.7V259
			c0-0.1,0-0.3,0-0.4c0-0.1,0.7-6.3,1.3-14.3c0.5-7.2-0.5-14.1-1.5-21.4l-0.2-1.7c-0.1-0.9-0.2-1.8-0.4-2.7c-1-7.4-2.1-15.7-8-22.1
			c-8.1-8.7-18.6-27.8-22.3-38.4c-0.7-2.1,0.4-4.4,2.5-5.1c2.1-0.7,4.4,0.4,5.1,2.5c3.3,9.6,13.5,27.9,20.6,35.5
			c7.7,8.2,9,18.4,10.1,26.5c0.1,0.9,0.2,1.8,0.4,2.6l0.2,1.7c1.1,7.8,2.2,15.1,1.6,23.1c-0.5,7.4-1.1,13.1-1.3,14.4v0.3
			c13.5,8.2,56.5,46.2,72.4,62c7.7,7.7,12.4,10.9,15,12.3c-1.5-20.8,31-64.6,31.3-65c3-3.8,5.6-4.1,12.6-4.8
			c2.7-0.3,6.3-0.7,11.2-1.3c0.1,0,0.2,0,0.3,0c14.6-1,21.9-7.5,25.8-11l0.2-0.2c2.8-2.5,4.1-6.2,3.3-9.5c-1.4-5.8-1.2-8.7,3.3-14.8
			c0.3-0.4,0.6-0.8,0.8-1.1c0.9-1.1,1-1.3,1.3-2.9c-0.5-0.7-2.2-2.1-3.7-2.8c-1.5-0.7-2.4-2.3-2.2-3.9c0.1-1.6,1.2-3,2.8-3.5
			c0.1,0,5.8-1.8,9.5-4.3c0.6-1.9-1.4-8.3-2.4-11.7c-0.8-2.6-1.6-5.2-2.1-7.6c-0.4-1.9,0.6-3.8,2.4-4.5c8.9-3.7,13.2-7,14.3-8.4
			c-1-1.6-4.1-5.6-6.7-8.9c-6.2-8-13.8-17.9-16.8-24.6c-5.6-12.6,2.4-22.7,2.7-23.1c1.4-1.7,3.9-2,5.6-0.6c1.7,1.4,2,3.9,0.6,5.6
			c-0.2,0.3-5.2,6.9-1.7,14.9c2.6,5.9,10.3,15.8,15.8,23c5.6,7.2,7.6,9.9,8.2,11.8c1.8,5.3-3.6,10.9-16,16.4
			c0.3,1.2,0.7,2.5,1.1,3.8c2.5,8.2,5.1,16.7-0.5,20.5c-1.6,1.1-3.4,2-5.1,2.8c1.4,1.7,2.3,3.8,1.9,6.2c-0.6,3.7-1.5,5-2.9,6.8
			c-0.2,0.3-0.5,0.6-0.7,1c-3,4-2.8,4.6-2,8.1c1.5,6.1-0.7,12.9-5.8,17.4l-0.2,0.2c-4.3,3.8-13.2,11.8-30.4,13
			c-4.9,0.7-8.6,1.1-11.3,1.3c-6.3,0.7-6.3,0.7-7.2,1.8c-6.9,8.9-31.6,46.1-29.6,60c1.6,3.9,0.1,6.7-1.7,8
			C159.1,342.2,158,342.9,156.1,342.9z"/>
		<path class="st3" d="M144.4,213.4c-2.9,0-6.3-0.5-10.1-1.7c-27.9-10-27.9-32.2-27.9-50.1c0-6.2,2.4-11.7,6.8-15.8
			c6.8-6.3,16.4-7.9,22.6-7.4c4.9,0.4,9.3,7.5,12.1,13.4c0.9,2,0.1,4.4-1.9,5.3c-2,1-4.4,0.1-5.3-1.9c-1.8-3.9-4.5-7.9-5.8-8.8
			c-4.7-0.3-11.7,1.3-16.1,5.4c-2.8,2.6-4.3,6-4.3,10c0,20.9,1.6,35.1,22.4,42.5c6.9,2.2,10.8,1.2,12.6,0.2
			c-0.2-0.2-0.4-0.4-0.6-0.5c-2.6-2.2-6.2-5.1-6.8-9.7c-0.3-2-1.7-3.4-3.1-4.8c-0.7-0.7-1.4-1.4-2-2.2c-1.3-1.8-0.8-4.3,1-5.6
			c1.8-1.3,4.3-0.8,5.6,1c0.1,0.2,0.6,0.7,1,1c1.8,1.8,4.9,4.7,5.5,9.5c0.2,1.4,2.3,3.2,3.9,4.5c1.6,1.3,3,2.5,3.9,4.1
			c1.1,2.2,0.6,4.9-1.3,7.1C154.3,211.3,150.3,213.4,144.4,213.4z"/>
	</g>
</g>
</svg>
