<?xml version="1.0" encoding="utf-8"?>
<!-- Generator: Adobe Illustrator 22.0.1, SVG Export Plug-In . SVG Version: 6.00 Build 0)  -->
<svg version="1.1" id="Layer_1" xmlns="http://www.w3.org/2000/svg" xmlns:xlink="http://www.w3.org/1999/xlink" x="0px" y="0px"
	 viewBox="0 0 260 260" style="enable-background:new 0 0 260 260;" xml:space="preserve">
<style type="text/css">
	.st0{fill:none;stroke:#FFFFFF;stroke-width:5;stroke-miterlimit:10;}
	.st1{fill:#FFFFFF;}
	.st2{fill:none;stroke:#FFFFFF;stroke-width:4;stroke-miterlimit:10;}
	.st3{fill:none;stroke:#FFFFFF;stroke-width:5;stroke-linecap:round;stroke-miterlimit:10;}
	.st4{fill:none;stroke:#FFFFFF;stroke-width:7;stroke-linecap:round;stroke-miterlimit:10;}
	.st5{fill:none;stroke:#FFFFFF;stroke-width:7;stroke-linecap:round;stroke-linejoin:round;stroke-miterlimit:10;}
	.st6{fill:none;stroke:#FFFFFF;stroke-width:4;stroke-linecap:round;stroke-miterlimit:10;}
	.st7{fill:none;stroke:#231F20;stroke-width:5;stroke-miterlimit:10;}
	.st8{fill:#231F20;}
	.st9{fill:none;stroke:#231F20;stroke-width:4;stroke-miterlimit:10;}
	.st10{fill:none;stroke:#231F20;stroke-width:5;stroke-linecap:round;stroke-miterlimit:10;}
	.st11{fill:none;stroke:#231F20;stroke-width:7;stroke-linecap:round;stroke-miterlimit:10;}
	.st12{fill:none;stroke:#231F20;stroke-width:7;stroke-linecap:round;stroke-linejoin:round;stroke-miterlimit:10;}
	.st13{fill:none;stroke:#231F20;stroke-width:4;stroke-linecap:round;stroke-miterlimit:10;}
</style>
<circle class="st3" cx="129.8" cy="131.5" r="125"/>
<path class="st3" d="M129.8,133.5c-16.6,0-39-20.3-39-45.3s1.1-53.7,39-53.7s39,28.7,39,53.7S146.3,133.5,129.8,133.5z"/>
<path class="st3" d="M130.5,215.5c-24,0-69-8-79.3-27c-0.3-0.6,5.3-27.8,17.3-35c5-3,17-6,42-5c2,0.1,2.8-17.2,2.8-17.2"/>
<path class="st3" d="M129.2,215.5c24,0,69-8,79.3-27c0.3-0.6-5.3-27.8-17.3-35c-5-3-17-6-42-5c-2,0.1-2.8-17.2-2.8-17.2"/>
<path class="st3" d="M110.5,148.5c0,16.7,39,16.7,39,0"/>
<path class="st3" d="M92.4,65L98,52.9c10.2-14.9,63.1-8.4,63.1-0.9l5.6,11.1"/>
<path class="st3" d="M170.8,79.8c2.8,0,4.2,1.8,4.2,7.4s-2.3,11.1-5.1,11.1"/>
<path class="st3" d="M88.7,79.8c-2.8,0-4.2,1.8-4.2,7.4s2.3,11.1,5.1,11.1"/>
</svg>
