<?xml version="1.0" encoding="utf-8"?>
<!-- Generator: Adobe Illustrator 22.0.1, SVG Export Plug-In . SVG Version: 6.00 Build 0)  -->
<svg version="1.1" id="Layer_1" xmlns="http://www.w3.org/2000/svg" xmlns:xlink="http://www.w3.org/1999/xlink" x="0px" y="0px"
	 viewBox="0 0 400.6 395.7" style="enable-background:new 0 0 400.6 395.7;" xml:space="preserve">
<style type="text/css">
	.st0{fill:none;stroke:#000000;stroke-width:4;stroke-miterlimit:10;}
	.st1{fill:none;stroke:#000000;stroke-width:4;stroke-linecap:round;stroke-linejoin:round;stroke-miterlimit:10;}
	.st2{clip-path:url(#SVGID_2_);}
	.st3{fill:#FFFFFF;}
	.st4{fill-rule:evenodd;clip-rule:evenodd;}
	.st5{fill-rule:evenodd;clip-rule:evenodd;fill:#FFFFFF;}
	.st6{clip-path:url(#SVGID_4_);fill:#FFFFFF;}
</style>
<path class="st3" d="M175.2,243.4c-15.4,0-30.5-4.2-44-12.5c-19.3-11.8-32.8-30.4-38.1-52.4c-10.9-45.3,17.1-91.1,62.4-102
	c45.3-10.9,91.1,17.1,102,62.4c10.9,45.3-17.1,91.1-62.4,102C188.6,242.6,181.9,243.4,175.2,243.4z M175.4,82.2
	c-5.9,0-11.9,0.7-17.9,2.1c-41.1,9.9-66.4,51.3-56.5,92.4c4.8,19.9,17,36.7,34.5,47.4c17.4,10.7,38,13.9,57.9,9.1
	c41.1-9.9,66.4-51.3,56.5-92.4C241.4,105.8,210,82.2,175.4,82.2z"/>
<path class="st3" d="M175.2,276.8c-21.5,0-42.6-5.9-61.4-17.4c-26.9-16.4-45.7-42.4-53.1-73c-7.4-30.6-2.4-62.3,14.1-89.2
	s42.4-45.7,73-53.1c30.6-7.4,62.3-2.4,89.2,14.1c26.9,16.4,45.7,42.4,53.1,73c15.2,63.2-23.8,127.1-87.1,142.3
	C193.8,275.7,184.4,276.8,175.2,276.8z M175.6,48.8c-8.6,0-17.3,1-25.9,3.1c-28.6,6.9-52.7,24.5-68.1,49.5s-20,54.6-13.1,83.1
	s24.5,52.7,49.5,68.1c25.1,15.3,54.6,20,83.1,13.1c58.9-14.2,95.4-73.7,81.2-132.6c-6.9-28.6-24.5-52.7-49.5-68.1
	C215.3,54.3,195.6,48.8,175.6,48.8z"/>
<path class="st3" d="M40,389c-4.9,0-9.7-1.4-14-4c-12.7-7.8-16.7-24.4-8.9-37.1l73.1-110.1l6.7,4.4l-73,110
	c-5.4,8.8-2.6,20.5,6.4,26c4.3,2.7,9.4,3.5,14.4,2.3c4.9-1.2,9.1-4.2,11.8-8.6l73.1-110.1l6.7,4.4l-73,110c-3.7,6-9.6,10.3-16.6,12
	C44.2,388.7,42.1,389,40,389z"/>
<path class="st3" d="M159,198.4c-10.7,0-20.4-7.3-23-18.1c-3-12.7,4.8-25.5,17.5-28.5c12.7-3.1,25.5,4.8,28.5,17.5l0,0
	c1.5,6.1,0.5,12.5-2.8,17.9c-3.3,5.4-8.5,9.2-14.6,10.6C162.7,198.2,160.9,198.4,159,198.4z M159,159.1c-1.2,0-2.4,0.1-3.7,0.4
	c-8.4,2-13.6,10.5-11.5,18.9c1,4.1,3.5,7.5,7,9.7c3.6,2.2,7.8,2.8,11.8,1.9c4.1-1,7.5-3.5,9.7-7c2.2-3.6,2.8-7.8,1.9-11.8l0,0
	C172.5,163.9,166.1,159.1,159,159.1z"/>
<path class="st3" d="M262,49c-4.3,0-8.5-1.2-12.3-3.5c-5.4-3.3-9.2-8.5-10.6-14.6c-1.5-6.1-0.5-12.5,2.8-17.9
	c3.3-5.4,8.5-9.2,14.6-10.6c12.7-3.1,25.5,4.8,28.5,17.5l0,0c3,12.7-4.8,25.5-17.5,28.5C265.7,48.8,263.8,49,262,49z M262,9.7
	c-1.2,0-2.4,0.1-3.7,0.4c-4.1,1-7.5,3.5-9.7,7c-2.2,3.6-2.8,7.8-1.9,11.8c1,4.1,3.5,7.5,7,9.7c3.6,2.2,7.8,2.8,11.8,1.9
	c8.4-2,13.6-10.5,11.5-18.9l0,0C275.5,14.5,269.1,9.7,262,9.7z"/>
<path class="st3" d="M374.9,97.3c-10.7,0-20.4-7.3-23-18.1c-3-12.7,4.8-25.5,17.5-28.5c6.1-1.5,12.5-0.5,17.9,2.8
	c5.4,3.3,9.2,8.5,10.6,14.6l0,0c3.1,12.7-4.8,25.5-17.5,28.5C378.6,97.1,376.7,97.3,374.9,97.3z M374.9,58c-1.2,0-2.5,0.1-3.7,0.4
	c-8.4,2-13.6,10.5-11.5,18.9c2,8.4,10.5,13.6,18.9,11.5c8.4-2,13.6-10.5,11.5-18.9l0,0c-1-4.1-3.5-7.5-7-9.7
	C380.6,58.8,377.8,58,374.9,58z"/>
<rect x="230.1" y="50.4" transform="matrix(0.5547 -0.8321 0.8321 0.5547 62.8106 226.0917)" class="st3" width="25.1" height="8"/>
<rect x="154.1" y="121.1" transform="matrix(0.5547 -0.8321 0.8321 0.5547 -17.0324 218.3333)" class="st3" width="82.7" height="8"/>
<rect x="317.3" y="7.2" transform="matrix(0.413 -0.9107 0.9107 0.413 144.4511 321.0602)" class="st3" width="8" height="82.6"/>
</svg>
