<?xml version="1.0" encoding="utf-8"?>
<!-- Generator: Adobe Illustrator 22.0.1, SVG Export Plug-In . SVG Version: 6.00 Build 0)  -->
<svg version="1.1" id="Layer_1" xmlns="http://www.w3.org/2000/svg" xmlns:xlink="http://www.w3.org/1999/xlink" x="0px" y="0px"
	 viewBox="0 0 260 260" style="enable-background:new 0 0 260 260;" xml:space="preserve">
<style type="text/css">
	.st0{fill:none;stroke:#FFFFFF;stroke-width:5;stroke-miterlimit:10;}
	.st1{fill:#FFFFFF;}
	.st2{fill:none;stroke:#FFFFFF;stroke-width:4;stroke-miterlimit:10;}
	.st3{fill:none;stroke:#FFFFFF;stroke-width:5;stroke-linecap:round;stroke-miterlimit:10;}
	.st4{fill:none;stroke:#FFFFFF;stroke-width:7;stroke-linecap:round;stroke-miterlimit:10;}
	.st5{fill:none;stroke:#FFFFFF;stroke-width:7;stroke-linecap:round;stroke-linejoin:round;stroke-miterlimit:10;}
	.st6{fill:none;stroke:#FFFFFF;stroke-width:4;stroke-linecap:round;stroke-miterlimit:10;}
	.st7{fill:none;stroke:#231F20;stroke-width:5;stroke-miterlimit:10;}
	.st8{fill:#231F20;}
	.st9{fill:none;stroke:#231F20;stroke-width:4;stroke-miterlimit:10;}
	.st10{fill:none;stroke:#231F20;stroke-width:5;stroke-linecap:round;stroke-miterlimit:10;}
	.st11{fill:none;stroke:#231F20;stroke-width:7;stroke-linecap:round;stroke-miterlimit:10;}
	.st12{fill:none;stroke:#231F20;stroke-width:7;stroke-linecap:round;stroke-linejoin:round;stroke-miterlimit:10;}
	.st13{fill:none;stroke:#231F20;stroke-width:4;stroke-linecap:round;stroke-miterlimit:10;}
</style>
<path class="st0" d="M235.8,250H24.2c-7.9,0-14.2-6.4-14.2-14.2V24.2C10,16.4,16.4,10,24.2,10h211.5c7.9,0,14.2,6.4,14.2,14.2v211.5
	C250,243.6,243.6,250,235.8,250z"/>
<line class="st0" x1="10" y1="56.4" x2="250" y2="56.4"/>
<g>
	<path class="st1" d="M99.3,166.9c0.3,0.2,0.4,0.7,0.3,1.7c-0.1,1-0.3,1.8-0.6,2.5c-0.3,0.7-0.7,1.4-1.2,2.1c-0.5,0.7-0.9,1-1.2,0.8
		l-33-22.1c-0.4-0.3-0.7-0.8-0.9-1.4c-0.2-0.6-0.3-1.3-0.3-2c0-0.7,0.1-1.4,0.3-2c0.2-0.6,0.5-1,0.9-1.3l33-22.1
		c0.3-0.2,0.7,0.1,1.2,0.8c0.5,0.8,0.9,1.5,1.1,2.1c0.2,0.7,0.4,1.5,0.6,2.5c0.1,1,0.1,1.5-0.2,1.7l-27.8,18.4L99.3,166.9z"/>
	<path class="st1" d="M152.1,105.3l-24.2,81.3c-0.2,0.4-0.8,0.7-1.7,0.8c-0.9,0.2-1.8,0.3-2.7,0.3c-1,0-1.9-0.1-2.7-0.3
		c-0.8-0.2-1.2-0.5-1-0.8l24.2-81.3c0.1-0.4,0.7-0.7,1.7-0.9c1-0.1,1.9-0.2,2.6-0.2c0.8,0,1.7,0.1,2.6,0.3
		C151.8,104.7,152.2,105,152.1,105.3z"/>
	<path class="st1" d="M206.1,148.5c0,0.6-0.1,1.3-0.3,2c-0.2,0.7-0.5,1.2-0.8,1.4L172,174c-0.3,0.1-0.7-0.1-1.2-0.8
		c-0.5-0.7-0.9-1.4-1.2-2.1c-0.3-0.9-0.6-1.8-0.6-2.6c-0.1-0.8,0-1.3,0.3-1.6l27.8-18.4l-27.8-18.4c-0.3-0.2-0.4-0.8-0.2-1.7
		c0.1-0.9,0.3-1.7,0.6-2.5c0.3-0.7,0.7-1.5,1.2-2.1c0.5-0.7,0.9-0.9,1.2-0.8l33,22.1c0.4,0.3,0.7,0.7,0.9,1.3
		C206,147.1,206.1,147.8,206.1,148.5z"/>
</g>
<circle class="st2" cx="190.5" cy="34.3" r="7.7"/>
<circle class="st2" cx="159.8" cy="34.3" r="7.7"/>
<circle class="st2" cx="221.2" cy="34.3" r="7.7"/>
</svg>
