<?xml version="1.0" encoding="utf-8"?>
<!-- Generator: Adobe Illustrator 22.0.1, SVG Export Plug-In . SVG Version: 6.00 Build 0)  -->
<svg version="1.1" id="Layer_1" xmlns="http://www.w3.org/2000/svg" xmlns:xlink="http://www.w3.org/1999/xlink" x="0px" y="0px"
	 viewBox="0 0 338.6 341.8" style="enable-background:new 0 0 338.6 341.8;" xml:space="preserve">
<style type="text/css">
	.st0{fill:none;stroke:#000000;stroke-width:4;stroke-miterlimit:10;}
	.st1{fill:none;stroke:#000000;stroke-width:4;stroke-linecap:round;stroke-linejoin:round;stroke-miterlimit:10;}
	.st2{clip-path:url(#SVGID_2_);}
	.st3{fill:#FFFFFF;}
	.st4{fill-rule:evenodd;clip-rule:evenodd;}
	.st5{fill-rule:evenodd;clip-rule:evenodd;fill:#FFFFFF;}
	.st6{clip-path:url(#SVGID_4_);fill:#FFFFFF;}
</style>
<path class="st3" d="M301.1,335H35.4c-17.9,0-32.5-14.6-32.5-32.5V36.9C2.9,19,17.5,4.4,35.4,4.4h265.7c17.9,0,32.5,14.6,32.5,32.5
	v265.7C333.5,320.4,319,335,301.1,335z M35.4,12.4c-13.5,0-24.5,11-24.5,24.5v265.7c0,13.5,11,24.5,24.5,24.5h265.7
	c13.5,0,24.5-11,24.5-24.5V36.9c0-13.5-11-24.5-24.5-24.5H35.4z"/>
<rect x="6.9" y="66.8" class="st3" width="322.6" height="8"/>
<g>
	<path class="st3" d="M128.2,221.9c0.4,0.2,0.5,1,0.3,2.3c-0.2,1.3-0.4,2.4-0.8,3.3c-0.4,0.9-0.9,1.9-1.6,2.9
		c-0.7,1-1.2,1.4-1.6,1.1l-44.4-29.7c-0.5-0.4-0.9-1-1.1-1.9c-0.2-0.9-0.3-1.7-0.3-2.6c0-1,0.1-1.9,0.3-2.7c0.2-0.8,0.6-1.4,1.1-1.8
		l44.4-29.7c0.4-0.3,0.9,0.1,1.7,1.1c0.7,1.1,1.2,2,1.5,2.8c0.3,0.9,0.6,2,0.7,3.3c0.2,1.3,0.1,2.1-0.3,2.3l-37.4,24.8L128.2,221.9z
		"/>
	<path class="st3" d="M199.2,139.2l-32.5,109.3c-0.3,0.5-1.1,0.9-2.3,1.1c-1.2,0.3-2.4,0.4-3.6,0.4c-1.3,0-2.5-0.1-3.6-0.4
		c-1.1-0.3-1.6-0.6-1.4-1.1l32.5-109.3c0.2-0.6,1-1,2.3-1.2c1.4-0.2,2.5-0.3,3.5-0.3c1.1,0,2.3,0.1,3.5,0.4
		C198.9,138.3,199.4,138.7,199.2,139.2z"/>
	<path class="st3" d="M271.8,197.2c0,0.8-0.1,1.7-0.4,2.6c-0.3,1-0.6,1.6-1.1,1.9l-44.4,29.7c-0.4,0.2-0.9-0.2-1.6-1.1
		s-1.2-1.9-1.6-2.9c-0.5-1.2-0.7-2.4-0.9-3.5c-0.1-1.1,0-1.8,0.4-2.1l37.4-24.8l-37.4-24.8c-0.4-0.3-0.5-1.1-0.3-2.3
		c0.2-1.2,0.4-2.3,0.7-3.3c0.4-1,0.9-2,1.6-2.9c0.7-0.9,1.2-1.3,1.6-1.1l44.4,29.7c0.5,0.4,0.9,1,1.1,1.8
		C271.7,195.3,271.8,196.2,271.8,197.2z"/>
</g>
<path class="st3" d="M232.3,55.8c-9.1,0-16.5-7.4-16.5-16.5s7.4-16.5,16.5-16.5s16.5,7.4,16.5,16.5S241.4,55.8,232.3,55.8z
	 M232.3,30.8c-4.7,0-8.5,3.8-8.5,8.5s3.8,8.5,8.5,8.5s8.5-3.8,8.5-8.5S237,30.8,232.3,30.8z"/>
<path class="st3" d="M282.3,55.8c-9.1,0-16.5-7.4-16.5-16.5s7.4-16.5,16.5-16.5s16.5,7.4,16.5,16.5S291.4,55.8,282.3,55.8z
	 M282.3,30.8c-4.7,0-8.5,3.8-8.5,8.5s3.8,8.5,8.5,8.5s8.5-3.8,8.5-8.5S287,30.8,282.3,30.8z"/>
</svg>
