<?xml version="1.0" encoding="utf-8"?>
<!-- Generator: Adobe Illustrator 22.0.1, SVG Export Plug-In . SVG Version: 6.00 Build 0)  -->
<svg version="1.1" id="Layer_1" xmlns="http://www.w3.org/2000/svg" xmlns:xlink="http://www.w3.org/1999/xlink" x="0px" y="0px"
	 viewBox="0 0 333.2 350.8" style="enable-background:new 0 0 333.2 350.8;" xml:space="preserve">
<style type="text/css">
	.st0{fill:none;stroke:#000000;stroke-width:4;stroke-miterlimit:10;}
	.st1{fill:none;stroke:#000000;stroke-width:4;stroke-linecap:round;stroke-linejoin:round;stroke-miterlimit:10;}
	.st2{clip-path:url(#SVGID_2_);}
	.st3{fill:#FFFFFF;}
	.st4{fill-rule:evenodd;clip-rule:evenodd;}
	.st5{fill-rule:evenodd;clip-rule:evenodd;fill:#FFFFFF;}
	.st6{clip-path:url(#SVGID_4_);fill:#FFFFFF;}
	.st7{fill:#010101;}
</style>
<path class="st0" d="M-1791.6-135.8h-132.8c-7.9,0-14.2-6.4-14.2-14.2v-132.8c0-7.9,6.4-14.2,14.2-14.2h132.8
	c7.9,0,14.2,6.4,14.2,14.2V-150C-1777.4-142.2-1783.7-135.8-1791.6-135.8z"/>
<line class="st0" x1="-1938.6" y1="-265.9" x2="-1777.4" y2="-265.9"/>
<g>
	<path d="M-1878-190.3c0.2,0.1,0.2,0.5,0.2,1.1c-0.1,0.7-0.2,1.2-0.4,1.7c-0.2,0.5-0.5,0.9-0.8,1.4c-0.3,0.5-0.6,0.7-0.8,0.5
		l-22.2-14.9c-0.3-0.2-0.5-0.5-0.6-0.9c-0.1-0.4-0.2-0.9-0.2-1.3c0-0.5,0.1-1,0.2-1.4c0.1-0.4,0.3-0.7,0.6-0.9l22.2-14.9
		c0.2-0.2,0.5,0,0.8,0.6c0.4,0.5,0.6,1,0.8,1.4c0.2,0.5,0.3,1,0.4,1.7c0.1,0.7,0,1-0.1,1.1l-18.7,12.4L-1878-190.3z"/>
	<path d="M-1842.5-231.7l-16.2,54.7c-0.2,0.3-0.5,0.4-1.1,0.6c-0.6,0.1-1.2,0.2-1.8,0.2c-0.7,0-1.3-0.1-1.8-0.2
		c-0.6-0.1-0.8-0.3-0.7-0.6l16.2-54.7c0.1-0.3,0.5-0.5,1.2-0.6c0.7-0.1,1.3-0.2,1.8-0.2c0.6,0,1.1,0.1,1.7,0.2
		C-1842.7-232.2-1842.4-232-1842.5-231.7z"/>
	<path d="M-1806.2-202.7c0,0.4-0.1,0.8-0.2,1.3c-0.1,0.5-0.3,0.8-0.5,0.9l-22.2,14.9c-0.2,0.1-0.5-0.1-0.8-0.5s-0.6-0.9-0.8-1.4
		c-0.2-0.6-0.4-1.2-0.4-1.7c-0.1-0.6,0-0.9,0.2-1.1l18.7-12.4l-18.7-12.4c-0.2-0.2-0.2-0.5-0.1-1.1c0.1-0.6,0.2-1.2,0.4-1.7
		c0.2-0.5,0.5-1,0.8-1.4s0.6-0.6,0.8-0.5l22.2,14.9c0.3,0.2,0.5,0.5,0.6,0.9C-1806.3-203.7-1806.2-203.2-1806.2-202.7z"/>
</g>
<circle class="st0" cx="-1826" cy="-281.7" r="6.2"/>
<circle class="st0" cx="-1801" cy="-281.7" r="6.2"/>
<g>
	<g>
		<path class="st0" d="M-1552.3-125c0,0,69.5-1.5,85.8-6.9c12-3.8,11.4-6,12-7.6c0.5-1.6-0.5-1.1-4.9-2.2
			c-4.3-1.1-45.1-4.9-47.8-4.9c0,0-15.8-26.6-30.4-40.2c-14.7-13.6-39.7-19-57.1-16.3c-17.4,2.7-48.4,9.8-65.2,45.1
			c-7.6,19-7.6,38-4.9,48.9c2.2,6.5,2.2,6.5,2.2,6.5s58.7-6.5,79.9-12C-1561.6-120-1552.3-125-1552.3-125z"/>
		<path class="st0" d="M-1507.2-146.6c0,0-22.5,14-45.1,21.6"/>
		<path class="st0" d="M-1549.6-174.9c0,0,10.9-7.7,14.4-9.5"/>
		<path class="st0" d="M-1520.9-138.1c0,0-24.3-51.1-63.9-51.1c-74.2,0-76.9,37.3-81.5,60.3"/>
		<path class="st0" d="M-1585.6-146.6c0-1.8-1.5-3.3-3.3-3.3c-1.8,0-3.3,1.5-3.3,3.3c0,1.8,1.5,3.3,3.3,3.3
			C-1587-143.3-1585.6-144.8-1585.6-146.6z"/>
		<path class="st0" d="M-1613.3-140c0-1.8-1.5-3.3-3.3-3.3c-1.8,0-3.3,1.5-3.3,3.3c0,1.8,1.5,3.3,3.3,3.3
			C-1614.8-136.7-1613.3-138.2-1613.3-140z"/>
	</g>
</g>
<g>
	<g>
		<path class="st1" d="M-1554.9-18c0,0,49.8-1.1,61.5-5c8.6-2.7,8.2-4.3,8.6-5.4c0.4-1.2-0.4-0.8-3.5-1.6
			c-3.1-0.8-32.3-3.5-34.2-3.5c0,0-11.3-19.1-21.8-28.8c-10.5-9.7-28.4-13.6-40.9-11.7c-12.5,1.9-34.6,7-46.7,32.3
			c-5.4,13.6-5.4,27.2-3.5,35c1.6,4.7,1.6,4.7,1.6,4.7s42-4.7,57.2-8.6C-1561.5-14.4-1554.9-18-1554.9-18z"/>
		<path class="st1" d="M-1522.6-33.5c0,0-16.1,10-32.3,15.5"/>
		<path class="st1" d="M-1553-53.7c0,0,7.8-5.5,10.3-6.8"/>
		<path class="st1" d="M-1533.4-28.4c0,0-16.4-35.6-44.7-35.6c-53.1,0-55.1,26.7-58.4,43.2"/>
		<path class="st1" d="M-1578.7-33.5c0-1.3-1.1-2.4-2.4-2.4c-1.3,0-2.4,1.1-2.4,2.4c0,1.3,1.1,2.4,2.4,2.4
			C-1579.8-31.1-1578.7-32.2-1578.7-33.5z"/>
		<path class="st1" d="M-1598.6-28.8c0-1.3-1.1-2.4-2.4-2.4s-2.4,1.1-2.4,2.4c0,1.3,1.1,2.4,2.4,2.4S-1598.6-27.5-1598.6-28.8z"/>
		<path class="st1" d="M-1636.6-19.7c0,0,4.9,9.6,6.8,17.2"/>
		<path class="st1" d="M-1526.6-18.7c0,0-3.4,4.2-1.1,9.5c2.3,5.3,11.4,15.5,12,17.2c0.6,1.8-3.5,4.4-8.5,6.4
			c0.9,4.1,3.7,10.2,1.6,11.7c-2.1,1.5-5.4,2.5-5.4,2.5s3.3,1.6,3,3.4c-0.3,1.8-0.6,1.9-1.5,3c-1.8,2.5-1.9,3.4-1.3,5.7
			c0.6,2.3-0.3,5-2.3,6.7c-2,1.7-6,5.5-14.2,6.1c-8.5,1.2-9.2,0.6-10.6,2.3c-1.4,1.8-16.7,23.3-15.2,31.8c1.3,2.6-1.7,4.1-11-5.3
			c-9.3-9.3-32.8-29.6-36.8-31.2v-1.5c0,0,0.3-3.1,0.6-7.2c0.3-4.1-0.3-7.9-0.9-12c-0.6-4.1-0.9-9.4-4.7-13.5
			c-3.8-4.1-9-13.4-10.7-18.5"/>
		<path class="st1" d="M-1576.7-3.1c0,0-2.6-5.4-4.4-5.5c-4.7-0.4-12.5,2.3-12.5,9.6c0,10.2,0.6,18.9,12.5,23.2c7,2.2,9.9-1,9.3-2.1
			c-0.6-1.2-3.8-2.6-4.1-5c-0.3-2.3-2.3-3.5-2.9-4.4"/>
	</g>
</g>
<g>
	<defs>
		<rect id="SVGID_1_" x="-1846.4" y="4.7" width="84.9" height="170"/>
	</defs>
	<clipPath id="SVGID_2_">
		<use xlink:href="#SVGID_1_"  style="overflow:visible;"/>
	</clipPath>
	<path class="st2" d="M-1762.9,80.1c-1.5-2.5-4.1-4-7-4h-28.8l8.4-65.4c0.3-2.6-1.2-5.1-3.7-5.9c-2.5-0.8-5.2,0.3-6.5,2.6l-45,83.6
		c-1.4,2.5-1.3,5.5,0.2,8c1.5,2.5,4.1,4,7,4h28.8l-8.4,65.4c-0.3,2.6,1.2,5.1,3.7,5.9c0.6,0.2,1.1,0.3,1.7,0.3c2,0,3.8-1.1,4.7-2.9
		l45-83.6C-1761.3,85.6-1761.4,82.6-1762.9,80.1L-1762.9,80.1z M-1767.6,85.5l-44.7,83.1l8.7-67.9c0.1-0.8-0.1-1.6-0.7-2.2
		c-0.5-0.6-1.3-0.9-2.1-0.9h-31.9c-1.3,0-2-0.9-2.2-1.3c-0.2-0.4-0.7-1.4-0.1-2.5l44.7-83.1l-8.7,67.9c-0.1,0.8,0.1,1.6,0.7,2.2
		c0.5,0.6,1.3,0.9,2.1,0.9h31.9c1.3,0,2,0.9,2.2,1.3C-1767.4,83.4-1767,84.4-1767.6,85.5L-1767.6,85.5z M-1767.6,85.5"/>
</g>
<path d="M-1865,178.5c-3.7,0-7.1-0.7-10.2-2c-3.1-1.3-5.8-3.1-8-5.3c-2.2-2.2-3.9-4.9-5.1-8c-1.2-3.1-1.9-6.7-1.9-10.4v-41.5
	c0-8.1-3.2-17.6-18.3-18.4v-7c15.1-0.8,18.3-10.3,18.3-18.4V25.3c0-3.8,0.6-7.3,1.9-10.3c1.2-3.1,3-5.8,5.1-8c2.2-2.2,4.8-4,7.9-5.2
	c3.1-1.2,6.6-1.9,10.3-1.9h7v6.9h-7c-12.2,0-18.6,6.4-18.6,18.5v42.1c0,2-0.4,4.1-1.2,6.3c-0.8,2.2-1.9,4.3-3.2,6.3
	c-1.3,1.9-3,3.6-4.9,5c-1.8,1.3-7.8,3.2-9.9,3.5v1.9c2.1,0.3,8,2.2,9.8,3.4c1.8,1.3,3.5,3,4.9,4.9c1.4,1.9,2.5,4,3.3,6.2
	c0.8,2.2,1.2,4.3,1.2,6.3v41.5c0,12.2,6.4,18.6,18.6,18.6h7v7.1H-1865z"/>
<path d="M-1751.9,178.5v-6.9h7c12.2,0,18.6-6.4,18.6-18.5v-42.1c0-2,0.4-4.1,1.2-6.3c0.8-2.2,1.9-4.3,3.2-6.3c1.3-1.9,3-3.6,4.9-5
	c1.8-1.3,7.8-3.2,9.9-3.5V88c-2.1-0.3-8-2.2-9.8-3.4c-1.8-1.3-3.5-3-4.9-4.9c-1.4-1.9-2.5-4-3.3-6.2c-0.8-2.2-1.2-4.3-1.2-6.3V25.7
	c0-12.2-6.4-18.6-18.6-18.6h-7V0h7c3.7,0,7.1,0.7,10.2,2c3.1,1.3,5.8,3.1,8,5.3c2.2,2.2,3.9,4.9,5.1,8c1.2,3.1,1.9,6.7,1.9,10.4
	v41.5c0,8.1,3.2,17.6,18.3,18.4v7c-15.1,0.8-18.3,10.3-18.3,18.4v42.2c0,3.8-0.6,7.3-1.9,10.3c-1.2,3.1-3,5.8-5.1,8
	c-2.2,2.2-4.8,4-7.9,5.2c-3.1,1.2-6.6,1.9-10.3,1.9H-1751.9z"/>
<circle class="st0" cx="-1597.8" cy="224.8" r="40.3"/>
<circle class="st0" cx="-1597.8" cy="224.8" r="57"/>
<path class="st0" d="M-1638.7,265.3l-36.5,55c-3.3,5.4-1.6,12.5,3.8,15.8c5.4,3.3,12.5,1.6,15.8-3.8l36.5-55"/>
<circle class="st0" cx="-1605.9" cy="232.7" r="9.8"/>
<circle class="st0" cx="-1554.4" cy="158" r="9.8"/>
<circle class="st0" cx="-1498" cy="182.2" r="9.8"/>
<line class="st0" x1="-1567.6" y1="177.8" x2="-1560.7" y2="167.3"/>
<line class="st0" x1="-1599.2" y1="225.1" x2="-1576.2" y2="190.7"/>
<line class="st0" x1="-1543.6" y1="161.1" x2="-1506" y2="178.1"/>
<g>
	<path d="M-1441.4,299.6c-4.5-7.7-10.5-13.7-18.2-18.2c-7.7-4.5-16-6.7-25.1-6.7c-9.1,0-17.5,2.2-25.1,6.7
		c-7.7,4.5-13.7,10.5-18.2,18.2c-4.5,7.7-6.7,16-6.7,25.1c0,10.9,3.2,20.7,9.5,29.4c6.4,8.7,14.6,14.7,24.7,18.1
		c1.2,0.2,2,0.1,2.6-0.5c0.6-0.5,0.8-1.2,0.8-2c0-0.1,0-1.3,0-3.5c0-2.2,0-4.1,0-5.8l-1.5,0.3c-1,0.2-2.2,0.2-3.6,0.2
		c-1.5,0-3-0.2-4.5-0.5c-1.6-0.3-3-0.9-4.4-2c-1.3-1-2.3-2.4-2.9-4l-0.7-1.5c-0.4-1-1.1-2.1-2.1-3.3c-0.9-1.2-1.9-2-2.8-2.5
		l-0.5-0.3c-0.3-0.2-0.6-0.5-0.8-0.8c-0.3-0.3-0.5-0.6-0.6-0.9c-0.1-0.3,0-0.6,0.3-0.8c0.3-0.2,1-0.3,1.9-0.3l1.3,0.2
		c0.9,0.2,1.9,0.7,3.2,1.6c1.3,0.9,2.3,2,3.2,3.4c1,1.8,2.2,3.1,3.6,4.1c1.4,0.9,2.8,1.4,4.3,1.4c1.4,0,2.7-0.1,3.7-0.3
		c1-0.2,2-0.5,2.9-1c0.4-2.9,1.5-5.2,3.2-6.7c-2.5-0.3-4.7-0.7-6.7-1.2c-2-0.5-4-1.4-6.1-2.5c-2.1-1.2-3.9-2.6-5.2-4.4
		c-1.4-1.7-2.5-4-3.4-6.8c-0.9-2.8-1.3-6.1-1.3-9.8c0-5.3,1.7-9.7,5.1-13.4c-1.6-4-1.5-8.4,0.5-13.3c1.3-0.4,3.1-0.1,5.6,0.9
		c2.5,1,4.3,1.8,5.4,2.5c1.2,0.7,2.1,1.3,2.8,1.8c4-1.1,8.2-1.7,12.5-1.7c4.3,0,8.5,0.6,12.5,1.7l2.5-1.6c1.7-1,3.7-2,6-2.9
		c2.3-0.9,4.1-1.1,5.3-0.7c2,4.9,2.1,9.3,0.5,13.3c3.4,3.7,5.1,8.2,5.1,13.4c0,3.7-0.4,7-1.3,9.8c-0.9,2.8-2,5.1-3.5,6.8
		c-1.4,1.7-3.2,3.2-5.3,4.3c-2.1,1.2-4.1,2-6.1,2.5c-2,0.5-4.2,0.9-6.7,1.2c2.3,2,3.4,5,3.4,9.3v13.8c0,0.8,0.3,1.4,0.8,2
		c0.5,0.5,1.4,0.7,2.6,0.5c10.1-3.3,18.3-9.4,24.7-18.1c6.4-8.7,9.6-18.5,9.6-29.4C-1434.7,315.6-1437,307.3-1441.4,299.6
		L-1441.4,299.6z M-1441.4,299.6"/>
</g>
<g>
	<path d="M-1624.9,349.6h-66.4c-3.2,0-5.8,2.5-5.8,5.6V422c0,3.1,2.6,5.6,5.8,5.6h66.4c3.2,0,5.8-2.5,5.8-5.6v-66.8
		C-1619.1,352.2-1621.7,349.6-1624.9,349.6L-1624.9,349.6z M-1673.4,414.9h-11.8v-35.2h11.8V414.9z M-1679.3,374.9L-1679.3,374.9
		c-4,0-6.6-2.7-6.6-6.1c0-3.5,2.6-6.1,6.7-6.1c4,0,6.5,2.6,6.6,6.1C-1672.7,372.2-1675.2,374.9-1679.3,374.9L-1679.3,374.9z
		 M-1631,414.9h-11.8v-18.8c0-4.7-1.7-8-6-8c-3.3,0-5.2,2.2-6,4.3c-0.3,0.7-0.4,1.8-0.4,2.8v19.6h-11.8c0,0,0.1-31.9,0-35.2h11.8v5
		c1.5-2.4,4.3-5.8,10.6-5.8c7.8,0,13.6,5,13.6,15.8V414.9z M-1655.2,384.8c0,0,0-0.1,0.1-0.1L-1655.2,384.8L-1655.2,384.8z
		 M-1655.2,384.8"/>
</g>
<g>
	<path class="st3" d="M-679.6,487h-132.8c-6.4,0-11.5,5-11.5,11.2v133.6c0,6.1,5.2,11.1,11.5,11.1h132.8c6.4,0,11.5-5,11.5-11.1
		V498.2C-668,492-673.2,487-679.6,487L-679.6,487z M-776.6,617.5h-23.5v-70.4h23.5V617.5z M-788.4,537.5h-0.2c-7.9,0-13-5.4-13-12.2
		c0-6.9,5.3-12.2,13.3-12.2c8.1,0,13,5.3,13.2,12.2C-775.1,532.1-780.2,537.5-788.4,537.5L-788.4,537.5z M-691.8,617.5h-23.5v-37.6
		c0-9.5-3.5-16-12-16c-6.5,0-10.4,4.4-12,8.6c-0.6,1.4-0.8,3.6-0.8,5.7v39.3h-23.6c0,0,0.3-63.8,0-70.4h23.6v10
		c3.1-4.8,8.7-11.6,21.2-11.6c15.5,0,27.1,10.1,27.1,31.7V617.5z M-740.2,557.3c0-0.1,0.1-0.1,0.1-0.2v0.2H-740.2z M-740.2,557.3"/>
</g>
<g>
	<path class="st4" d="M-1720.8,347h-80.6c-3.2,0-5.8,2.6-5.8,5.8v63.4c0,3.2,2.6,5.8,5.8,5.8h80.6c3.2,0,5.8-2.6,5.8-5.8v-63.4
		C-1715,349.6-1717.6,347-1720.8,347L-1720.8,347z M-1723.7,413.2h-74.9v-44.1l33.7,28.3c1.1,0.9,2.4,1.4,3.7,1.4
		c1.3,0,2.6-0.4,3.7-1.4l33.7-28.3V413.2z M-1723.7,357.9l-37.4,31.4l-37.5-31.4v-2.3h74.9V357.9z M-1723.7,357.9"/>
</g>
<g>
	<path class="st5" d="M-296.3,490.1h-161.3c-6.4,0-11.5,5.2-11.5,11.5v126.7c0,6.4,5.2,11.5,11.5,11.5h161.3
		c6.4,0,11.5-5.1,11.5-11.5V501.6C-284.8,495.2-290,490.1-296.3,490.1L-296.3,490.1z M-302.1,622.5h-149.8v-88.1l67.5,56.6
		c2.2,1.8,4.8,2.7,7.4,2.7c2.6,0,5.3-0.9,7.4-2.7l67.5-56.6V622.5z M-302.1,511.9l-74.9,62.8l-74.9-62.8v-4.5h149.8V511.9z
		 M-302.1,511.9"/>
</g>
<path class="st3" d="M-571.6,335h-265.7c-17.9,0-32.5-14.6-32.5-32.5V36.9c0-17.9,14.6-32.5,32.5-32.5h265.7
	c17.9,0,32.5,14.6,32.5,32.5v265.7C-539.2,320.4-553.7,335-571.6,335z M-837.3,12.4c-13.5,0-24.5,11-24.5,24.5v265.7
	c0,13.5,11,24.5,24.5,24.5h265.7c13.5,0,24.5-11,24.5-24.5V36.9c0-13.5-11-24.5-24.5-24.5H-837.3z"/>
<rect x="-865.7" y="66.8" class="st3" width="322.6" height="8"/>
<g>
	<path class="st3" d="M-744.5,221.9c0.4,0.2,0.5,1,0.3,2.3c-0.2,1.3-0.4,2.4-0.8,3.3c-0.4,0.9-0.9,1.9-1.6,2.9
		c-0.7,1-1.2,1.4-1.6,1.1l-44.4-29.7c-0.5-0.4-0.9-1-1.1-1.9c-0.2-0.9-0.3-1.7-0.3-2.6c0-1,0.1-1.9,0.3-2.7c0.2-0.8,0.6-1.4,1.1-1.8
		l44.4-29.7c0.4-0.3,0.9,0.1,1.7,1.1c0.7,1.1,1.2,2,1.5,2.8c0.3,0.9,0.6,2,0.7,3.3c0.2,1.3,0.1,2.1-0.3,2.3l-37.4,24.8L-744.5,221.9
		z"/>
	<path class="st3" d="M-673.5,139.2L-706,248.5c-0.3,0.5-1.1,0.9-2.3,1.1c-1.2,0.3-2.4,0.4-3.6,0.4c-1.3,0-2.5-0.1-3.6-0.4
		c-1.1-0.3-1.6-0.6-1.4-1.1l32.5-109.3c0.2-0.6,1-1,2.3-1.2c1.4-0.2,2.5-0.3,3.5-0.3c1.1,0,2.3,0.1,3.5,0.4
		C-673.8,138.3-673.3,138.7-673.5,139.2z"/>
	<path class="st3" d="M-600.9,197.2c0,0.8-0.1,1.7-0.4,2.6c-0.3,1-0.6,1.6-1.1,1.9l-44.4,29.7c-0.4,0.2-0.9-0.2-1.6-1.1
		s-1.2-1.9-1.6-2.9c-0.5-1.2-0.7-2.4-0.9-3.5c-0.1-1.1,0-1.8,0.4-2.1l37.4-24.8l-37.4-24.8c-0.4-0.3-0.5-1.1-0.3-2.3
		c0.2-1.2,0.4-2.3,0.7-3.3c0.4-1,0.9-2,1.6-2.9c0.7-0.9,1.2-1.3,1.6-1.1l44.4,29.7c0.5,0.4,0.9,1,1.1,1.8
		C-601,195.3-600.9,196.2-600.9,197.2z"/>
</g>
<path class="st3" d="M-640.3,55.8c-9.1,0-16.5-7.4-16.5-16.5s7.4-16.5,16.5-16.5s16.5,7.4,16.5,16.5S-631.3,55.8-640.3,55.8z
	 M-640.3,30.8c-4.7,0-8.5,3.8-8.5,8.5s3.8,8.5,8.5,8.5s8.5-3.8,8.5-8.5S-635.7,30.8-640.3,30.8z"/>
<path class="st3" d="M-590.4,55.8c-9.1,0-16.5-7.4-16.5-16.5s7.4-16.5,16.5-16.5s16.5,7.4,16.5,16.5S-581.3,55.8-590.4,55.8z
	 M-590.4,30.8c-4.7,0-8.5,3.8-8.5,8.5s3.8,8.5,8.5,8.5s8.5-3.8,8.5-8.5S-585.7,30.8-590.4,30.8z"/>
<g>
	<g>
		<path class="st3" d="M-1252.1,159.5c-1.7,0-3.2-1.1-3.8-2.7l-3.1-9.3c0-0.1-0.1-0.2-0.1-0.3c-3.9-15.5-4.3-43.8,7.2-72.5
			c0-0.1,0.1-0.2,0.1-0.2c23.9-50.1,66.5-62.1,96.4-66.8c25-3.9,62.2,3.2,85,24.4c18.8,17.4,38.3,48.7,43.2,56.6
			c12,0.8,61,5.5,67.1,7c1.7,0.4,3.1,0.7,4.1,0.9c2.2,0.4,4.2,0.8,5.4,2.8c1.2,2,0.5,4,0.3,4.6c0,0.1-0.1,0.3-0.1,0.4
			c-1.1,4.1-3.3,7.8-19.6,13c-22.7,7.5-112.4,9.8-123.2,10.1c-3.5,1.7-17.1,8.1-43.6,14.9c-30.3,7.8-111.5,16.8-114.9,17.2
			C-1251.8,159.5-1252,159.5-1252.1,159.5z M-1251.4,145l2,6.1c15.7-1.8,84.2-9.9,110.6-16.7c29.4-7.5,42.5-14.6,42.7-14.6
			c0.6-0.3,1.2-0.5,1.8-0.5c1,0,99.3-2.2,121.8-9.7c8.2-2.6,11.6-4.5,13.1-5.7c-0.8-0.2-1.7-0.4-2.7-0.6c-5.7-1.4-63.5-6.9-67.5-6.9
			c-1.4,0-2.7-0.7-3.4-2c-0.2-0.4-22.5-37.9-42.9-56.7c-20.8-19.2-55.9-25.8-78.4-22.3c-28.1,4.4-68,15.6-90.3,62.2
			C-1255.3,104.5-1254.9,130.7-1251.4,145z"/>
		<path class="st3" d="M-1094.2,127.4c-1.7,0-3.2-1.1-3.8-2.7c-0.7-2.1,0.4-4.4,2.5-5.1c31.5-10.6,63.4-30.3,63.8-30.5
			c1.9-1.2,4.3-0.6,5.5,1.3c1.2,1.9,0.6,4.3-1.3,5.5c-1.3,0.8-33,20.5-65.4,31.3C-1093.3,127.3-1093.7,127.4-1094.2,127.4z"/>
		<path class="st3" d="M-1090.3,56c-1.3,0-2.5-0.6-3.3-1.7c-1.3-1.8-0.8-4.3,1-5.6c0.6-0.5,15.9-11.2,21.1-13.9
			c1.9-1,4.4-0.3,5.4,1.6c1,1.9,0.3,4.4-1.6,5.4c-4.7,2.5-20.1,13.3-20.3,13.4C-1088.7,55.8-1089.5,56-1090.3,56z"/>
		<path class="st3" d="M-1257.4,121.7c-0.3,0-0.5,0-0.8-0.1c-2.2-0.4-3.6-2.5-3.1-4.7c0.4-1.8,0.7-3.6,1.1-5.5
			c6.3-33.5,15.9-84.1,119.6-84.1c24.3,0,48.2,12.8,69,37c15.5,18,23.8,35.8,24.1,36.5c0.9,2,0,4.4-2,5.3c-2,0.9-4.4,0.1-5.3-2
			c-0.3-0.7-32.5-68.9-85.8-68.9c-97.1,0-105.6,44.8-111.8,77.5c-0.4,1.9-0.7,3.8-1.1,5.6C-1253.9,120.4-1255.5,121.7-1257.4,121.7z
			"/>
		<path class="st3" d="M-1146.5,101.2c-4.8,0-8.7-3.9-8.7-8.7s3.9-8.7,8.7-8.7s8.7,3.9,8.7,8.7S-1141.7,101.2-1146.5,101.2z
			 M-1146.5,91.7c-0.4,0-0.7,0.3-0.7,0.7c0,0.4,0.3,0.7,0.7,0.7c0.4,0,0.7-0.3,0.7-0.7C-1145.8,92.1-1146.1,91.7-1146.5,91.7z"/>
		<path class="st3" d="M-1186.2,110.6c-4.8,0-8.7-3.9-8.7-8.7s3.9-8.7,8.7-8.7s8.7,3.9,8.7,8.7S-1181.4,110.6-1186.2,110.6z
			 M-1186.2,101.2c-0.4,0-0.7,0.3-0.7,0.7c0,0.4,0.3,0.7,0.7,0.7c0.4,0,0.7-0.3,0.7-0.7C-1185.5,101.5-1185.8,101.2-1186.2,101.2z"
			/>
		<path class="st3" d="M-1243.8,158.5c-1.8,0-3.4-1.2-3.9-3c-3.7-14.6-13.2-33.4-13.3-33.6c-1-2-0.2-4.4,1.8-5.4
			c2-1,4.4-0.2,5.4,1.8c0.4,0.8,10,19.8,14,35.3c0.5,2.1-0.7,4.3-2.9,4.9C-1243.1,158.5-1243.4,158.5-1243.8,158.5z"/>
		<path class="st3" d="M-1125.9,342.9c-3.7,0-10.5-2.8-23.4-15.7c-20.4-20.4-65.6-58.9-72.2-61.6c-1.5-0.6-2.5-2.1-2.5-3.7V259
			c0-0.1,0-0.3,0-0.4c0-0.1,0.7-6.3,1.3-14.3c0.5-7.2-0.5-14.1-1.5-21.4l-0.2-1.7c-0.1-0.9-0.2-1.8-0.4-2.7c-1-7.4-2.1-15.7-8-22.1
			c-8.1-8.7-18.6-27.8-22.3-38.4c-0.7-2.1,0.4-4.4,2.5-5.1c2.1-0.7,4.4,0.4,5.1,2.5c3.3,9.6,13.5,27.9,20.6,35.5
			c7.7,8.2,9,18.4,10.1,26.5c0.1,0.9,0.2,1.8,0.4,2.6l0.2,1.7c1.1,7.8,2.2,15.1,1.6,23.1c-0.5,7.4-1.1,13.1-1.3,14.4v0.3
			c13.5,8.2,56.5,46.2,72.4,62c7.7,7.7,12.4,10.9,15,12.3c-1.5-20.8,31-64.6,31.3-65c3-3.8,5.6-4.1,12.6-4.8
			c2.7-0.3,6.3-0.7,11.2-1.3c0.1,0,0.2,0,0.3,0c14.6-1,21.9-7.5,25.8-11l0.2-0.2c2.8-2.5,4.1-6.2,3.3-9.5c-1.4-5.8-1.2-8.7,3.3-14.8
			c0.3-0.4,0.6-0.8,0.8-1.1c0.9-1.1,1-1.3,1.3-2.9c-0.5-0.7-2.2-2.1-3.7-2.8c-1.5-0.7-2.4-2.3-2.2-3.9c0.1-1.6,1.2-3,2.8-3.5
			c0.1,0,5.8-1.8,9.5-4.3c0.6-1.9-1.4-8.3-2.4-11.7c-0.8-2.6-1.6-5.2-2.1-7.6c-0.4-1.9,0.6-3.8,2.4-4.5c8.9-3.7,13.2-7,14.3-8.4
			c-1-1.6-4.1-5.6-6.7-8.9c-6.2-8-13.8-17.9-16.8-24.6c-5.6-12.6,2.4-22.7,2.7-23.1c1.4-1.7,3.9-2,5.6-0.6c1.7,1.4,2,3.9,0.6,5.6
			c-0.2,0.3-5.2,6.9-1.7,14.9c2.6,5.9,10.3,15.8,15.8,23c5.6,7.2,7.6,9.9,8.2,11.8c1.8,5.3-3.6,10.9-16,16.4
			c0.3,1.2,0.7,2.5,1.1,3.8c2.5,8.2,5.1,16.7-0.5,20.5c-1.6,1.1-3.4,2-5.1,2.8c1.4,1.7,2.3,3.8,1.9,6.2c-0.6,3.7-1.5,5-2.9,6.8
			c-0.2,0.3-0.5,0.6-0.7,1c-3,4-2.8,4.6-2,8.1c1.5,6.1-0.7,12.9-5.8,17.4l-0.2,0.2c-4.3,3.8-13.2,11.8-30.4,13
			c-4.9,0.7-8.6,1.1-11.3,1.3c-6.3,0.7-6.3,0.7-7.2,1.8c-6.9,8.9-31.6,46.1-29.6,60c1.6,3.9,0.1,6.7-1.7,8
			C-1122.9,342.2-1124,342.9-1125.9,342.9z"/>
		<path class="st3" d="M-1137.6,213.4c-2.9,0-6.3-0.5-10.1-1.7c-27.9-10-27.9-32.2-27.9-50.1c0-6.2,2.4-11.7,6.8-15.8
			c6.8-6.3,16.4-7.9,22.6-7.4c4.9,0.4,9.3,7.5,12.1,13.4c0.9,2,0.1,4.4-1.9,5.3c-2,1-4.4,0.1-5.3-1.9c-1.8-3.9-4.5-7.9-5.8-8.8
			c-4.7-0.3-11.7,1.3-16.1,5.4c-2.8,2.6-4.3,6-4.3,10c0,20.9,1.6,35.1,22.4,42.5c6.9,2.2,10.8,1.2,12.6,0.2
			c-0.2-0.2-0.4-0.4-0.6-0.5c-2.6-2.2-6.2-5.1-6.8-9.7c-0.3-2-1.7-3.4-3.1-4.8c-0.7-0.7-1.4-1.4-2-2.2c-1.3-1.8-0.8-4.3,1-5.6
			c1.8-1.3,4.3-0.8,5.6,1c0.1,0.2,0.6,0.7,1,1c1.8,1.8,4.9,4.7,5.5,9.5c0.2,1.4,2.3,3.2,3.9,4.5c1.6,1.3,3,2.5,3.9,4.1
			c1.1,2.2,0.6,4.9-1.3,7.1C-1127.7,211.3-1131.7,213.4-1137.6,213.4z"/>
	</g>
</g>
<g>
	<g>
		<defs>
			<rect id="SVGID_3_" x="-362.7" y="28.1" width="147.9" height="296.1"/>
		</defs>
		<clipPath id="SVGID_4_">
			<use xlink:href="#SVGID_3_"  style="overflow:visible;"/>
		</clipPath>
		<path class="st6" d="M-217.2,159.5c-2.6-4.3-7.1-6.9-12.1-6.9h-50.1l14.6-113.8c0.6-4.6-2.1-8.8-6.5-10.2c-4.4-1.4-9,0.4-11.2,4.5
			L-361,178.7c-2.4,4.4-2.3,9.6,0.3,13.9c2.6,4.3,7.1,6.9,12.1,6.9h50.1l-14.6,113.8c-0.6,4.6,2.1,8.8,6.5,10.2c1,0.3,2,0.5,3,0.5
			c3.4,0,6.6-1.8,8.3-5l78.4-145.6C-214.6,169-214.7,163.8-217.2,159.5L-217.2,159.5z M-225.4,168.9l-77.9,144.7l15.2-118.3
			c0.2-1.4-0.2-2.8-1.2-3.8c-0.9-1-2.2-1.6-3.6-1.6h-55.6c-2.3,0-3.5-1.5-3.8-2.2c-0.4-0.7-1.2-2.4-0.1-4.4l77.9-144.7l-15.2,118.3
			c-0.2,1.4,0.2,2.8,1.2,3.8c0.9,1,2.2,1.6,3.6,1.6h55.6c2.3,0,3.5,1.5,3.8,2.2C-225.1,165.1-224.3,166.9-225.4,168.9L-225.4,168.9z
			 M-225.4,168.9"/>
	</g>
	<path class="st3" d="M-395.1,330.8c-6.4,0-12.4-1.1-17.8-3.4c-5.4-2.3-10.1-5.4-13.9-9.2c-3.8-3.8-6.8-8.6-9-14
		c-2.2-5.5-3.3-11.6-3.3-18.2v-72.3c0-14.1-5.6-30.7-31.9-32v-12.1c26.2-1.3,31.9-18,31.9-32.1V64.1c0-6.6,1.1-12.6,3.2-18
		c2.1-5.3,5.2-10,9-13.9c3.8-3.8,8.4-6.9,13.8-9c5.4-2.2,11.4-3.3,17.9-3.3h12.2v12h-12.2c-21.2,0-32.5,11.1-32.5,32.1v73.4
		c0,3.5-0.7,7.1-2,11c-1.4,3.9-3.3,7.6-5.6,10.9c-2.3,3.3-5.2,6.2-8.5,8.7c-3.2,2.3-13.6,5.6-17.2,6.1v3.4c3.6,0.6,14,3.8,17.1,6
		c3.2,2.3,6.1,5.2,8.5,8.5c2.5,3.3,4.4,7,5.8,10.8c1.3,3.8,2,7.5,2,11v72.3c0,21.2,11.2,32.5,32.5,32.5h12.2v12.3H-395.1z"/>
	<path class="st3" d="M-198.1,330.8v-12h12.2c21.2,0,32.5-11.1,32.5-32.1v-73.4c0-3.4,0.7-7.1,2-11c1.4-3.9,3.3-7.6,5.6-10.9
		c2.3-3.3,5.2-6.2,8.5-8.7c3.2-2.3,13.6-5.6,17.2-6.1v-3.4c-3.6-0.6-14-3.8-17.1-6c-3.2-2.3-6.1-5.2-8.5-8.5
		c-2.5-3.3-4.4-7-5.7-10.8c-1.3-3.8-2-7.5-2-11V64.7c0-21.2-11.2-32.5-32.5-32.5h-12.2V19.9h12.2c6.4,0,12.4,1.1,17.8,3.4
		c5.4,2.3,10.1,5.4,13.9,9.2c3.8,3.8,6.8,8.6,9,14c2.2,5.5,3.3,11.6,3.3,18.2V137c0,14.1,5.6,30.7,31.9,32v12.1
		c-26.2,1.3-31.9,18-31.9,32.1v73.4c0,6.6-1.1,12.6-3.2,18c-2.1,5.3-5.2,10-9,13.9c-3.8,3.8-8.4,6.9-13.8,9
		c-5.4,2.2-11.4,3.3-17.9,3.3H-198.1z"/>
</g>
<g>
	<path class="st3" d="M-1000.5,519.7c-9-15.3-21.1-27.5-36.4-36.4c-15.3-9-32.1-13.4-50.2-13.4s-34.9,4.5-50.3,13.4
		c-15.3,9-27.5,21.1-36.4,36.4c-9,15.3-13.4,32.1-13.4,50.3c0,21.8,6.4,41.4,19.1,58.9c12.7,17.4,29.2,29.5,49.3,36.2
		c2.3,0.4,4.1,0.1,5.2-0.9c1.1-1,1.7-2.4,1.7-3.9c0-0.3,0-2.6-0.1-7c0-4.4-0.1-8.3-0.1-11.6l-3,0.5c-1.9,0.4-4.3,0.5-7.2,0.5
		c-2.9,0-5.9-0.3-9.1-0.9c-3.1-0.6-6-1.9-8.7-3.9c-2.7-2-4.6-4.7-5.7-8l-1.3-3c-0.9-2-2.2-4.2-4.1-6.6c-1.9-2.4-3.8-4.1-5.7-5
		l-0.9-0.6c-0.6-0.4-1.2-1-1.7-1.6c-0.5-0.6-0.9-1.2-1.2-1.8c-0.3-0.6,0-1.1,0.6-1.5c0.7-0.4,2-0.6,3.8-0.6l2.6,0.4
		c1.7,0.3,3.9,1.4,6.5,3.1c2.6,1.7,4.7,4,6.3,6.8c2,3.6,4.4,6.3,7.2,8.1c2.8,1.9,5.7,2.8,8.5,2.8c2.9,0,5.3-0.2,7.4-0.6
		c2.1-0.4,4-1.1,5.9-2c0.8-5.8,2.9-10.3,6.4-13.4c-5-0.5-9.4-1.3-13.4-2.4c-4-1-8-2.7-12.2-5.1c-4.2-2.3-7.7-5.3-10.5-8.7
		c-2.8-3.5-5.1-8-6.8-13.7c-1.8-5.7-2.7-12.2-2.7-19.6c0-10.5,3.4-19.5,10.3-26.9c-3.2-7.9-2.9-16.8,0.9-26.6
		c2.5-0.8,6.3-0.2,11.2,1.8c5,2,8.6,3.6,10.9,5c2.3,1.4,4.2,2.6,5.5,3.5c8.1-2.3,16.4-3.4,25-3.4c8.6,0,16.9,1.1,25,3.4l5-3.1
		c3.4-2.1,7.4-4,12-5.7c4.6-1.7,8.1-2.2,10.6-1.4c3.9,9.8,4.3,18.7,1,26.6c6.9,7.4,10.3,16.3,10.3,26.9c0,7.4-0.9,13.9-2.7,19.6
		c-1.8,5.7-4.1,10.3-6.9,13.7c-2.8,3.4-6.3,6.3-10.6,8.7c-4.2,2.3-8.3,4-12.2,5.1c-4,1-8.4,1.8-13.4,2.4c4.5,3.9,6.8,10.1,6.8,18.5
		v27.5c0,1.6,0.5,2.9,1.6,3.9c1.1,1,2.8,1.4,5.1,0.9c20.2-6.7,36.6-18.8,49.3-36.2c12.7-17.4,19.1-37,19.1-58.8
		C-987.1,551.8-991.5,535-1000.5,519.7L-1000.5,519.7z M-1000.5,519.7"/>
</g>
<path class="st7" d="M-1840.5,260.3l-17.9-17.9c-0.4-0.4-0.9-0.6-1.4-0.6h-61.5c-5.5,0-9.9,4.5-9.9,9.9v99.2c0,5.5,4.5,9.9,9.9,9.9
	h71.5c5.5,0,9.9-4.5,9.9-9.9v-89.3C-1839.9,261.2-1840.1,260.7-1840.5,260.3z M-1857.8,248.7l11.1,11.1h-11.1V248.7z M-1843.9,351.1
	c0,3.3-2.7,6-6,6h-71.5c-3.3,0-6-2.7-6-6v-99.2c0-3.3,2.7-6,6-6h59.5v15.9c0,1.1,0.9,2,2,2h15.9V351.1z"/>
<path class="st7" d="M-1913.3,275.4c-3.2,0-5.7,2.6-5.7,5.7c0,3.2,2.6,5.7,5.7,5.7c3.2,0,5.7-2.6,5.7-5.7
	C-1907.6,277.9-1910.2,275.4-1913.3,275.4z M-1913.3,283.9c-1.6,0-2.9-1.3-2.9-2.9s1.3-2.9,2.9-2.9c1.6,0,2.9,1.3,2.9,2.9
	S-1911.8,283.9-1913.3,283.9z"/>
<path class="st7" d="M-1913.3,297.4c-3.2,0-5.7,2.6-5.7,5.7c0,3.2,2.6,5.7,5.7,5.7c3.2,0,5.7-2.6,5.7-5.7
	C-1907.6,299.9-1910.2,297.4-1913.3,297.4z M-1913.3,305.9c-1.6,0-2.9-1.3-2.9-2.9s1.3-2.9,2.9-2.9c1.6,0,2.9,1.3,2.9,2.9
	S-1911.8,305.9-1913.3,305.9z"/>
<path class="st7" d="M-1913.3,319.4c-3.2,0-5.7,2.6-5.7,5.7s2.6,5.7,5.7,5.7c3.2,0,5.7-2.6,5.7-5.7S-1910.2,319.4-1913.3,319.4z
	 M-1913.3,327.9c-1.6,0-2.9-1.3-2.9-2.9s1.3-2.9,2.9-2.9c1.6,0,2.9,1.3,2.9,2.9S-1911.8,327.9-1913.3,327.9z"/>
<path class="st7" d="M-1913.3,341.4c-3.2,0-5.7,2.6-5.7,5.7c0,3.2,2.6,5.7,5.7,5.7c3.2,0,5.7-2.6,5.7-5.7
	C-1907.6,343.9-1910.2,341.4-1913.3,341.4z M-1913.3,349.9c-1.6,0-2.9-1.3-2.9-2.9c0-1.6,1.3-2.9,2.9-2.9c1.6,0,2.9,1.3,2.9,2.9
	C-1910.5,348.7-1911.8,349.9-1913.3,349.9z"/>
<rect x="-1901.4" y="279.6" class="st7" width="51.6" height="4"/>
<rect x="-1903.6" y="259.8" class="st7" width="36.2" height="4"/>
<rect x="-1901.4" y="301.4" class="st7" width="51.6" height="4"/>
<rect x="-1901.4" y="323.3" class="st7" width="51.6" height="4"/>
<rect x="-1901.4" y="345.1" class="st7" width="51.6" height="4"/>
<path class="st3" d="M302.8,55.7L251,3.9c-1-1-2.5-1.7-4.1-1.7H68.3C52.5,2.2,39.6,15.1,39.6,31v288c0,15.9,12.9,28.8,28.8,28.8
	h207.3c15.9,0,28.8-12.9,28.8-28.8V59.8C304.5,58.2,303.8,56.8,302.8,55.7z M252.6,21.9l32.2,32.2h-32.2V21.9z M293,319
	c0,9.5-7.8,17.3-17.3,17.3H68.3c-9.5,0-17.3-7.8-17.3-17.3V31c0-9.5,7.8-17.3,17.3-17.3h172.8v46.1c0,3.2,2.6,5.8,5.8,5.8H293V319z"
	/>
<path class="st3" d="M91.4,99.4c-9.1,0-16.6,7.4-16.6,16.6s7.4,16.6,16.6,16.6S108,125.1,108,116S100.5,99.4,91.4,99.4z M91.4,124.2
	c-4.6,0-8.3-3.7-8.3-8.3c0-4.6,3.7-8.3,8.3-8.3s8.3,3.7,8.3,8.3C99.7,120.5,96,124.2,91.4,124.2z"/>
<path class="st3" d="M91.4,163.2c-9.1,0-16.6,7.4-16.6,16.6c0,9.1,7.4,16.6,16.6,16.6s16.6-7.4,16.6-16.6
	C108,170.6,100.5,163.2,91.4,163.2z M91.4,188.1c-4.6,0-8.3-3.7-8.3-8.3s3.7-8.3,8.3-8.3s8.3,3.7,8.3,8.3S96,188.1,91.4,188.1z"/>
<path class="st3" d="M91.4,227.1c-9.1,0-16.6,7.4-16.6,16.6c0,9.1,7.4,16.6,16.6,16.6s16.6-7.4,16.6-16.6
	C108,234.5,100.5,227.1,91.4,227.1z M91.4,251.9c-4.6,0-8.3-3.7-8.3-8.3s3.7-8.3,8.3-8.3s8.3,3.7,8.3,8.3S96,251.9,91.4,251.9z"/>
<path class="st3" d="M91.4,290.9c-9.1,0-16.6,7.4-16.6,16.6S82.2,324,91.4,324s16.6-7.4,16.6-16.6S100.5,290.9,91.4,290.9z
	 M91.4,315.8c-4.6,0-8.3-3.7-8.3-8.3s3.7-8.3,8.3-8.3s8.3,3.7,8.3,8.3S96,315.8,91.4,315.8z"/>
<rect x="125.9" y="111.6" class="st3" width="149.7" height="11.5"/>
<rect x="119.5" y="54.1" class="st3" width="105" height="11.5"/>
<rect x="125.9" y="175" class="st3" width="149.7" height="11.5"/>
<rect x="125.9" y="238.4" class="st3" width="149.7" height="11.5"/>
<rect x="125.9" y="301.7" class="st3" width="149.7" height="11.5"/>
</svg>
