<?xml version="1.0" encoding="utf-8"?>
<!-- Generator: Adobe Illustrator 22.0.1, SVG Export Plug-In . SVG Version: 6.00 Build 0)  -->
<svg version="1.1" id="Layer_1" xmlns="http://www.w3.org/2000/svg" xmlns:xlink="http://www.w3.org/1999/xlink" x="0px" y="0px"
	 viewBox="0 0 260 260" style="enable-background:new 0 0 260 260;" xml:space="preserve">
<style type="text/css">
	.st0{fill:none;stroke:#FFFFFF;stroke-width:5;stroke-miterlimit:10;}
	.st1{fill:#FFFFFF;}
	.st2{fill:none;stroke:#FFFFFF;stroke-width:4;stroke-miterlimit:10;}
	.st3{fill:none;stroke:#FFFFFF;stroke-width:5;stroke-linecap:round;stroke-miterlimit:10;}
	.st4{fill:none;stroke:#FFFFFF;stroke-width:7;stroke-linecap:round;stroke-miterlimit:10;}
	.st5{fill:none;stroke:#FFFFFF;stroke-width:7;stroke-linecap:round;stroke-linejoin:round;stroke-miterlimit:10;}
	.st6{fill:none;stroke:#FFFFFF;stroke-width:4;stroke-linecap:round;stroke-miterlimit:10;}
	.st7{fill:none;stroke:#231F20;stroke-width:5;stroke-miterlimit:10;}
	.st8{fill:#231F20;}
	.st9{fill:none;stroke:#231F20;stroke-width:4;stroke-miterlimit:10;}
	.st10{fill:none;stroke:#231F20;stroke-width:5;stroke-linecap:round;stroke-miterlimit:10;}
	.st11{fill:none;stroke:#231F20;stroke-width:7;stroke-linecap:round;stroke-miterlimit:10;}
	.st12{fill:none;stroke:#231F20;stroke-width:7;stroke-linecap:round;stroke-linejoin:round;stroke-miterlimit:10;}
	.st13{fill:none;stroke:#231F20;stroke-width:4;stroke-linecap:round;stroke-miterlimit:10;}
</style>
<path class="st0" d="M69,79.9H30c-6.9,0-12.5-5.6-12.5-12.5V30c0-6.9,5.6-12.5,12.5-12.5H69c6.9,0,12.5,5.6,12.5,12.5v37.3
	C81.5,74.2,75.9,79.9,69,79.9z"/>
<path class="st0" d="M151,79.9H112c-6.9,0-12.5-5.6-12.5-12.5V30c0-6.9,5.6-12.5,12.5-12.5H151c6.9,0,12.5,5.6,12.5,12.5v37.3
	C163.5,74.2,157.9,79.9,151,79.9z"/>
<path class="st0" d="M233,79.9H194c-6.9,0-12.5-5.6-12.5-12.5V30c0-6.9,5.6-12.5,12.5-12.5H233c6.9,0,12.5,5.6,12.5,12.5v37.3
	C245.5,74.2,239.9,79.9,233,79.9z"/>
<path class="st0" d="M69,162.7H30c-6.9,0-12.5-5.6-12.5-12.5v-37.3c0-6.9,5.6-12.5,12.5-12.5H69c6.9,0,12.5,5.6,12.5,12.5v37.3
	C81.5,157.1,75.9,162.7,69,162.7z"/>
<path class="st0" d="M151,162.7H112c-6.9,0-12.5-5.6-12.5-12.5v-37.3c0-6.9,5.6-12.5,12.5-12.5H151c6.9,0,12.5,5.6,12.5,12.5v37.3
	C163.5,157.1,157.9,162.7,151,162.7z"/>
<path class="st0" d="M233,162.7H194c-6.9,0-12.5-5.6-12.5-12.5v-37.3c0-6.9,5.6-12.5,12.5-12.5H233c6.9,0,12.5,5.6,12.5,12.5v37.3
	C245.5,157.1,239.9,162.7,233,162.7z"/>
<path class="st0" d="M69,245.5H30c-6.9,0-12.5-5.6-12.5-12.5v-37.3c0-6.9,5.6-12.5,12.5-12.5H69c6.9,0,12.5,5.6,12.5,12.5V233
	C81.5,239.9,75.9,245.5,69,245.5z"/>
<path class="st0" d="M151,245.5H112c-6.9,0-12.5-5.6-12.5-12.5v-37.3c0-6.9,5.6-12.5,12.5-12.5H151c6.9,0,12.5,5.6,12.5,12.5V233
	C163.5,239.9,157.9,245.5,151,245.5z"/>
<path class="st0" d="M233,245.5H194c-6.9,0-12.5-5.6-12.5-12.5v-37.3c0-6.9,5.6-12.5,12.5-12.5H233c6.9,0,12.5,5.6,12.5,12.5V233
	C245.5,239.9,239.9,245.5,233,245.5z"/>
</svg>
