<?xml version="1.0" encoding="utf-8"?>
<!-- Generator: Adobe Illustrator 22.0.1, SVG Export Plug-In . SVG Version: 6.00 Build 0)  -->
<svg version="1.1" id="Layer_1" xmlns="http://www.w3.org/2000/svg" xmlns:xlink="http://www.w3.org/1999/xlink" x="0px" y="0px"
	 viewBox="0 0 260 260" style="enable-background:new 0 0 260 260;" xml:space="preserve">
<style type="text/css">
	.st0{fill:#FFFFFF;}
	.st1{fill:none;stroke:#FFFFFF;stroke-width:5;stroke-miterlimit:10;}
	.st2{fill:none;stroke:#FFFFFF;stroke-width:4;stroke-miterlimit:10;}
	.st3{fill:none;stroke:#FFFFFF;stroke-width:5;stroke-linecap:round;stroke-miterlimit:10;}
	.st4{fill:none;stroke:#FFFFFF;stroke-width:7;stroke-linecap:round;stroke-miterlimit:10;}
	.st5{fill:none;stroke:#FFFFFF;stroke-width:7;stroke-linecap:round;stroke-linejoin:round;stroke-miterlimit:10;}
	.st6{fill:none;stroke:#231F20;stroke-width:5;stroke-miterlimit:10;}
	.st7{fill:#231F20;}
	.st8{fill:none;stroke:#231F20;stroke-width:4;stroke-miterlimit:10;}
	.st9{fill:none;stroke:#231F20;stroke-width:5;stroke-linecap:round;stroke-miterlimit:10;}
	.st10{fill:none;stroke:#231F20;stroke-width:7;stroke-linecap:round;stroke-miterlimit:10;}
	.st11{fill:none;stroke:#231F20;stroke-width:7;stroke-linecap:round;stroke-linejoin:round;stroke-miterlimit:10;}
	.st12{fill:none;stroke:#231F20;stroke-width:4;stroke-linecap:round;stroke-miterlimit:10;}
</style>
<path class="st1" d="M69,78.9H30c-6.9,0-12.5-5.6-12.5-12.5V29c0-6.9,5.6-12.5,12.5-12.5H69c6.9,0,12.5,5.6,12.5,12.5v37.3
	C81.5,73.2,75.9,78.9,69,78.9z"/>
<path class="st1" d="M151,78.9H112c-6.9,0-12.5-5.6-12.5-12.5V29c0-6.9,5.6-12.5,12.5-12.5H151c6.9,0,12.5,5.6,12.5,12.5v37.3
	C163.5,73.2,157.9,78.9,151,78.9z"/>
<path class="st1" d="M233,78.9H194c-6.9,0-12.5-5.6-12.5-12.5V29c0-6.9,5.6-12.5,12.5-12.5H233c6.9,0,12.5,5.6,12.5,12.5v37.3
	C245.5,73.2,239.9,78.9,233,78.9z"/>
<path class="st1" d="M69,161.7H30c-6.9,0-12.5-5.6-12.5-12.5v-37.3c0-6.9,5.6-12.5,12.5-12.5H69c6.9,0,12.5,5.6,12.5,12.5v37.3
	C81.5,156.1,75.9,161.7,69,161.7z"/>
<path class="st1" d="M151,161.7H112c-6.9,0-12.5-5.6-12.5-12.5v-37.3c0-6.9,5.6-12.5,12.5-12.5H151c6.9,0,12.5,5.6,12.5,12.5v37.3
	C163.5,156.1,157.9,161.7,151,161.7z"/>
<path class="st1" d="M233,161.7H194c-6.9,0-12.5-5.6-12.5-12.5v-37.3c0-6.9,5.6-12.5,12.5-12.5H233c6.9,0,12.5,5.6,12.5,12.5v37.3
	C245.5,156.1,239.9,161.7,233,161.7z"/>
<path class="st1" d="M69,244.5H30c-6.9,0-12.5-5.6-12.5-12.5v-37.3c0-6.9,5.6-12.5,12.5-12.5H69c6.9,0,12.5,5.6,12.5,12.5V232
	C81.5,238.9,75.9,244.5,69,244.5z"/>
<path class="st1" d="M151,244.5H112c-6.9,0-12.5-5.6-12.5-12.5v-37.3c0-6.9,5.6-12.5,12.5-12.5H151c6.9,0,12.5,5.6,12.5,12.5V232
	C163.5,238.9,157.9,244.5,151,244.5z"/>
<path class="st1" d="M233,244.5H194c-6.9,0-12.5-5.6-12.5-12.5v-37.3c0-6.9,5.6-12.5,12.5-12.5H233c6.9,0,12.5,5.6,12.5,12.5V232
	C245.5,238.9,239.9,244.5,233,244.5z"/>
<g>
	<path class="st0" d="M59.4,43.2c1.6,0.6,3,1.3,4,2.1s1.5,1.7,1.5,2.5s-0.5,1.8-1.6,2.6s-2.5,1.6-4.2,2.1l-0.5,0.2l0.2,0.8
		c0.4,1.7,0.4,3.2,0.1,4.5s-0.8,2.1-1.6,2.6s-1.7,0.4-2.9,0.1s-2.4-1.1-3.7-2.2L50,57.7l-0.6,0.6c-1.3,1.1-2.5,1.9-3.8,2.3
		s-2.2,0.4-3,0s-1.3-1.3-1.5-2.5s-0.2-2.6,0.1-4.3l0.2-1.1l-0.8-0.2c-1.7-0.6-3-1.3-4.1-2.2s-1.6-1.7-1.6-2.6s0.5-1.7,1.5-2.5
		s2.3-1.5,3.9-2.1l1.1-0.4l-0.2-1c-0.4-1.7-0.4-3.1-0.2-4.3s0.7-2,1.5-2.5s1.8-0.5,3,0s2.5,1.2,3.9,2.5l0.5,0.5l0.8-0.7
		c1.3-1.1,2.5-1.9,3.7-2.3s2.1-0.4,2.9,0.1s1.3,1.3,1.5,2.6s0.2,2.8-0.2,4.6l-0.2,0.6C58.8,43,59.1,43.1,59.4,43.2z M41.7,51.6
		c0.4-1.3,0.9-2.6,1.5-3.8c-0.6-1.2-1.1-2.5-1.5-3.8l-1,0.4c-1.4,0.5-2.5,1-3.3,1.6s-1.2,1.2-1.2,1.8c0.1,0.7,0.4,1.3,1.1,1.8
		c0.9,0.7,2.2,1.3,3.7,1.8C41.2,51.5,41.5,51.5,41.7,51.6z M48.5,57.4l0.6-0.5c-0.9-1-1.8-2.1-2.5-3.2c-1.3-0.1-2.7-0.3-4-0.5
		l-0.2,0.9c-0.3,1.4-0.3,2.5-0.2,3.5s0.5,1.6,1,1.9c0.7,0.3,1.3,0.3,2.1-0.1C46.4,58.9,47.5,58.3,48.5,57.4z M43.1,36.1
		c-0.5,0.3-0.8,0.9-0.9,1.9s-0.1,2.2,0.2,3.6l0.2,0.9c1.3-0.3,2.6-0.5,3.9-0.6c0.8-1.1,1.6-2.1,2.5-3.1l-0.4-0.4
		c-1.1-1-2.2-1.7-3.2-2.1S43.6,35.8,43.1,36.1z M43.9,46.3c0.2-0.5,0.5-1,0.8-1.5c0.3-0.5,0.6-1,0.9-1.5c-1,0.1-1.9,0.3-2.7,0.5
		C43.2,44.6,43.5,45.5,43.9,46.3z M43.9,49.3c-0.4,0.9-0.7,1.8-0.9,2.6c0.9,0.2,1.8,0.3,2.7,0.4c-0.3-0.4-0.6-0.9-0.9-1.5
		C44.5,50.4,44.2,49.9,43.9,49.3z M44.5,47.8c0.4,0.9,0.9,1.7,1.3,2.4s0.9,1.5,1.4,2.3c0.9,0,1.8,0.1,2.7,0.1s1.8,0,2.7-0.1
		c0.5-0.8,1-1.6,1.5-2.3s0.8-1.5,1.2-2.3c-0.4-0.9-0.9-1.7-1.3-2.4s-0.9-1.5-1.4-2.2c-0.9-0.1-1.8-0.1-2.7-0.1s-1.8,0-2.7,0.1
		c-0.5,0.8-1,1.5-1.4,2.2C45.4,46.3,44.9,47.1,44.5,47.8z M49.9,45.1c-0.7,0-1.4,0.3-1.9,0.8s-0.8,1.2-0.8,1.9s0.3,1.4,0.8,1.9
		s1.2,0.8,1.9,0.8s1.4-0.3,1.9-0.8s0.8-1.2,0.8-1.9s-0.3-1.4-0.8-1.9S50.7,45.1,49.9,45.1z M49.9,39.7c-0.6,0.7-1.2,1.4-1.8,2.1
		c1.2,0,2.3,0,3.5,0C51.1,41.1,50.5,40.4,49.9,39.7z M50,55.9c0.6-0.7,1.2-1.4,1.7-2.1c-0.5,0-1.1,0.1-1.7,0.1s-1.2,0-1.7-0.1
		C48.8,54.6,49.4,55.3,50,55.9z M51.5,38.2l-0.7,0.6c0.9,1,1.7,2,2.5,3.1c1.3,0.1,2.6,0.3,3.9,0.6l0.1-0.6c0.3-1.5,0.4-2.8,0.3-3.8
		s-0.5-1.8-1-2.1s-1.2-0.2-2.2,0.1S52.6,37.3,51.5,38.2z M57.7,57.7L57.7,57.7c0.1-1.3,0.1-2.6-0.2-3.9l-0.2-0.7
		c-1.3,0.3-2.6,0.5-4,0.6c-0.7,1.1-1.6,2.1-2.5,3.2l0.8,0.6c1.1,0.9,2,1.5,3,1.9s1.6,0.4,2.1,0.1C57.2,59.1,57.6,58.4,57.7,57.7z
		 M55.1,50.8c-0.4,0.6-0.7,1.1-0.9,1.5c0.9-0.1,1.9-0.3,2.8-0.5c-0.3-0.9-0.6-1.8-0.9-2.6C55.7,49.9,55.4,50.4,55.1,50.8z M56,46.3
		c0.4-0.9,0.7-1.7,0.9-2.6c-0.8-0.2-1.7-0.4-2.6-0.5c0.3,0.5,0.6,1,0.9,1.5C55.4,45.2,55.6,45.7,56,46.3z M58.7,51.4
		c1.4-0.5,2.6-1.1,3.5-1.8s1.4-1.3,1.4-1.8s-0.4-1.1-1.3-1.8s-2-1.2-3.3-1.7l-0.9-0.2c-0.4,1.3-0.9,2.5-1.4,3.7
		c0.6,1.2,1.1,2.5,1.5,3.7C58.3,51.5,58.5,51.5,58.7,51.4z"/>
</g>
<g>
	<path class="st0" d="M141.4,35c0.8,0,1.4,0.3,2,0.8s0.8,1.2,0.8,2v20.6c0,0.8-0.3,1.4-0.8,2s-1.2,0.8-2,0.8h-20.6
		c-0.8,0-1.4-0.3-2-0.8s-0.8-1.2-0.8-2V37.8c0-0.8,0.3-1.4,0.8-2s1.2-0.8,2-0.8H141.4z M132.3,55.4v-8.4h-2.5v8.4
		c0,0.6-0.1,1-0.4,1.2s-0.6,0.3-1,0.3s-0.7-0.1-1-0.4c-0.2-0.2-0.4-0.4-0.6-0.9l-2,1.2c0.7,1.5,1.9,2.3,3.7,2.3c1.1,0,2-0.3,2.7-0.9
		S132.3,56.7,132.3,55.4z M138.1,59.2c1.2,0,2.2-0.3,3-0.9s1.1-1.5,1.1-2.5c0-1-0.3-1.8-0.8-2.3c-0.5-0.5-1.3-1-2.5-1.5l-0.6-0.2
		c-0.6-0.3-1-0.5-1.2-0.7s-0.3-0.5-0.3-0.8s0.1-0.6,0.3-0.8s0.5-0.3,0.8-0.3s0.7,0.1,0.9,0.2s0.5,0.4,0.7,0.8l1.9-1.2
		c-0.4-0.7-0.9-1.2-1.4-1.5s-1.3-0.5-2.1-0.5c-1.1,0-2,0.3-2.6,0.9s-1,1.4-1,2.3s0.3,1.7,0.8,2.3c0.5,0.5,1.2,1,2.2,1.3l0.6,0.3
		c0.7,0.3,1.2,0.5,1.3,0.7c0.3,0.2,0.5,0.5,0.5,0.9s-0.2,0.7-0.5,0.9S138.5,57,138,57c-1,0-1.8-0.5-2.4-1.5l-2,1.2
		c0.4,0.7,0.9,1.3,1.6,1.8C136.1,59,137,59.2,138.1,59.2z"/>
</g>
<g>
	<path class="st0" d="M213.4,33.2c2.7,0,5.1,0.6,7.4,1.9s4,2.9,5.3,5.1c1.3,2.2,2,4.7,2,7.3c0,3.2-0.9,6.1-2.7,8.7s-4.2,4.3-7.1,5.3
		c-0.3,0.1-0.6,0-0.7-0.1s-0.3-0.4-0.3-0.6v-4.9c0-1.2-0.3-2.1-1-2.7c1.4-0.2,2.5-0.4,3.2-0.6c1.1-0.4,1.9-1,2.5-1.8
		c0.7-1,1-2.4,1-4.2c0-0.7-0.1-1.4-0.4-1.9c-0.2-0.4-0.6-0.9-1.1-1.5c0.2-0.4,0.3-0.9,0.3-1.4c0-0.9-0.1-1.7-0.4-2.6
		c-0.4-0.1-0.9,0-1.6,0.2c-0.5,0.2-1,0.5-1.6,0.8l-0.8,0.5c-1.2-0.4-2.5-0.5-3.7-0.5s-2.5,0.2-3.7,0.5l-0.8-0.5
		c-0.6-0.4-1.2-0.6-1.7-0.8c-0.7-0.3-1.2-0.4-1.6-0.2c-0.4,0.9-0.5,1.7-0.4,2.6c0,0.5,0.1,1,0.2,1.3c-0.5,0.6-0.8,1.1-1,1.6
		s-0.3,1.1-0.3,1.8c0,1.8,0.3,3.1,0.9,4.1c0.5,0.8,1.4,1.4,2.5,1.8c0.7,0.2,1.8,0.4,3.2,0.6c-0.5,0.5-0.8,1.1-0.9,2
		c-0.7,0.3-1.3,0.4-1.9,0.4c-1-0.1-1.8-0.6-2.3-1.6c-0.2-0.4-0.5-0.8-0.9-1.1c-0.3-0.2-0.6-0.3-0.9-0.4l-0.4-0.1
		c-0.4,0-0.7,0.1-0.7,0.2s0.1,0.3,0.3,0.4l0.3,0.2c0.3,0.2,0.5,0.4,0.8,0.8c0.2,0.3,0.4,0.6,0.6,0.9l0.2,0.5c0.2,0.6,0.6,1,1.1,1.3
		c0.5,0.3,1,0.4,1.7,0.5c0.5,0,1,0,1.5-0.1l0.6-0.1l0.1,3.6c0,0.2-0.1,0.4-0.3,0.6s-0.4,0.2-0.7,0.1c-3-1-5.4-2.7-7.2-5.3
		s-2.8-5.5-2.8-8.7c0-2.7,0.6-5.1,1.9-7.3s3-3.9,5.2-5.2S210.7,33.2,213.4,33.2z M204,53c0.1-0.1,0.2-0.1,0.3,0s0.2,0.1,0.1,0.2
		s-0.1,0.1-0.3,0S204,53,204,53z M204.7,53.4c0.1-0.1,0.2-0.1,0.3,0.1s0.1,0.2,0.1,0.3s-0.2,0.1-0.3-0.1S204.6,53.5,204.7,53.4z
		 M205.3,54.2c0.1,0,0.1,0,0.2,0s0.1,0.1,0.1,0.1c0.1,0.2,0.1,0.3,0,0.4c0,0-0.1,0-0.1,0s-0.1-0.1-0.2-0.1
		C205.2,54.4,205.2,54.2,205.3,54.2z M206,55c0,0,0.1,0,0.2,0s0.1,0.1,0.2,0.1s0.1,0.1,0.1,0.2s0,0.1,0,0.2
		c-0.1,0.1-0.3,0.1-0.4-0.1c-0.1-0.1-0.1-0.2-0.1-0.2S205.9,55.1,206,55z M206.9,55.8c0-0.2,0.2-0.2,0.4-0.1s0.3,0.1,0.3,0.2
		s-0.1,0.2-0.1,0.2s-0.2,0-0.2,0s-0.1-0.1-0.2-0.1S206.9,55.8,206.9,55.8z M208.7,56c0,0,0-0.1-0.1-0.1s-0.1-0.1-0.3-0.1
		c-0.2,0-0.3,0.1-0.3,0.2s0.1,0.2,0.3,0.2S208.7,56.2,208.7,56z M209.5,55.7c0.2,0,0.3,0.1,0.3,0.2s-0.1,0.2-0.3,0.3
		c-0.1,0-0.1,0-0.2,0s-0.1-0.1-0.1-0.2S209.3,55.7,209.5,55.7z"/>
</g>
<g>
	<path class="st0" d="M216.3,142.9c-0.4,0.1-1,0.1-1.7,0.1l-0.8,0.1c-3.4,0-6.8-0.8-10-2.5c-1.7-0.9-3.2-2-4.6-3.3
		c-0.2-0.1-0.2-0.2-0.2-0.4s0.1-0.2,0.2-0.2s0.3,0.1,0.4,0.1l0.1,0.1c3.2,1.8,6.6,3,10.4,3.6c1.8,0.3,3.6,0.4,5.3,0.3
		c3.5-0.2,6.8-1,10-2.3c0.3-0.1,0.5-0.1,0.6-0.1s0.2,0.2,0.2,0.4s-0.1,0.3-0.2,0.4l-0.2,0.2c-0.5,0.4-0.9,0.6-1.1,0.8
		C222.2,141.7,219.4,142.6,216.3,142.9z M206.3,133.2l-0.5-0.8l-0.7,0.6c-1,0.7-2.1,0.9-3.3,0.5c-0.9-0.3-1.4-0.9-1.6-1.8
		s0-1.7,0.4-2.3s1.2-1,2.2-1.2c0.6-0.1,1.4,0,2.5,0.2c0.2,0,0.2,0,0.3,0s0-0.1,0-0.3V128c0-0.5,0-1-0.1-1.2
		c-0.2-0.4-0.4-0.7-0.8-0.8c-0.7-0.2-1.6-0.2-2.6,0.1l-0.9,0.3c-0.2,0.1-0.3,0.1-0.3,0s-0.1-0.2-0.1-0.4s0-0.4,0-0.6
		c0-0.1,0.1-0.2,0.2-0.3c0.8-0.4,1.7-0.7,2.5-0.7s1.5,0,2,0.2c1.1,0.3,1.7,1.1,1.8,2.2c0.1,0.4,0.1,1.6,0.1,3.8v0.2
		c0,0.5,0.1,1.1,0.4,1.6c0.1,0.2,0.2,0.3,0.1,0.4s-0.1,0.2-0.3,0.3l-0.4,0.3c-0.2,0.1-0.3,0.2-0.4,0.1S206.5,133.4,206.3,133.2z
		 M205.4,129.6l-0.6-0.1c-0.4,0-0.7-0.1-0.9-0.1s-0.4,0-0.7,0.1c-0.8,0.1-1.2,0.5-1.3,1.3c0,0.4,0,0.7,0.2,1s0.5,0.5,0.9,0.5
		c0.5,0,1.1-0.1,1.5-0.3c0.6-0.3,1-0.8,1.1-1.5v-0.6C205.7,129.7,205.6,129.6,205.4,129.6z M214.3,126.7l1.6,6.3
		c0,0.2,0.1,0.3,0.2,0.4s0.2,0.1,0.5,0.1h0.6c0.3,0,0.5,0,0.6-0.1s0.2-0.2,0.3-0.5l2.4-7.8c0-0.2,0-0.3,0-0.3s-0.2-0.1-0.3-0.1h-0.7
		c-0.2,0-0.4,0-0.5,0.1s-0.2,0.2-0.3,0.4l-1.6,6.4c-0.1-0.2-0.4-1.4-0.9-3.7l-0.6-2.8c0-0.2-0.1-0.3-0.2-0.4s-0.2-0.1-0.4-0.1h-0.5
		c-0.3,0-0.5,0-0.7,0.1s-0.2,0.3-0.3,0.5l-1.5,6.1h-0.1l-1.6-6.3c-0.1-0.3-0.3-0.4-0.5-0.4h-0.7c-0.3,0-0.5,0-0.6,0.1s0,0.3,0.1,0.7
		l2.3,7.6c0.1,0.2,0.2,0.3,0.2,0.4s0.2,0.1,0.4,0.1h0.9c0.2,0,0.3,0,0.4-0.1s0.1-0.2,0.2-0.4l0.6-2.6
		C213.7,129.3,214,128,214.3,126.7z M225.9,133.5c-0.6,0.2-1.3,0.3-2,0.3s-1.5-0.2-2.1-0.4s-0.9-0.7-0.7-1.3
		c0.1-0.2,0.2-0.3,0.4-0.2l0.1,0.1c1.6,0.7,2.9,0.7,3.9,0.2c0.3-0.2,0.5-0.4,0.5-0.9s-0.2-0.7-0.5-0.9l-1.9-0.7
		c-0.4-0.1-0.7-0.2-0.9-0.4c-1.1-0.5-1.5-1.3-1.5-2.4c0.1-0.9,0.6-1.6,1.5-2.1c1.2-0.5,2.6-0.5,4,0.1c0.2,0.1,0.3,0.3,0.4,0.5
		s0.1,0.5,0,0.8c-0.1,0.1-0.2,0.1-0.5,0.1l-0.4-0.1c-0.4-0.1-0.6-0.2-0.8-0.2c-0.5-0.1-1.1-0.1-1.7,0s-0.9,0.5-0.9,1.1
		c0,0.3,0.2,0.6,0.5,0.7s0.9,0.4,1.7,0.7l1.1,0.4c0.9,0.4,1.3,0.9,1.5,1.8c0.1,0.7,0,1.2-0.3,1.8S226.5,133.2,225.9,133.5z
		 M226.6,137.6c-0.5,0-1.3,0-2.2,0.1l-0.8,0.1c-0.1,0-0.2-0.1-0.2-0.2s0-0.1,0.1-0.2c0.2-0.2,0.4-0.3,0.5-0.4c1-0.5,2.2-0.8,3.6-0.6
		c0.2,0,0.5,0.1,0.9,0.2c0.2,0,0.3,0.1,0.4,0.2s0.1,0.2,0.1,0.4c0,0.7-0.1,1.6-0.5,2.5c-0.3,0.8-0.7,1.4-1.3,2l-0.1,0.1
		c-0.2,0.2-0.4,0.2-0.5,0.1s-0.1-0.2-0.1-0.4l0.4-1.1c0.3-0.7,0.5-1.3,0.6-1.7s0.1-0.7-0.1-0.8S227,137.6,226.6,137.6z"/>
</g>
<g>
	<path class="st0" d="M223.1,222.6l-11.3,4.1l-9.8-4.1l1-4.8h4.2l-0.4,2.1l5.9,2.2l6.8-2.2l1-4.9h-16.9l0.8-4.2h16.9l0.6-2.7h-17
		l0.9-4.2h20.7L223.1,222.6z"/>
</g>
<g>
	<path class="st0" d="M49.4,225.8l-3.1-1.9c-0.3-0.2-0.4-0.3-0.1-0.4c0.5-0.2,1-0.4,1.4-0.6c0.1-0.1,0.2-0.1,0.3,0l2.4,1.4
		c0.1,0.1,0.2,0.1,0.3,0l9.4-5.4c0.1,0,0.1-0.1,0.1-0.3v-10.8c0-0.1-0.1-0.2-0.2-0.3l-9.3-5.4c-0.1-0.1-0.2-0.1-0.3,0l-9.3,5.4
		c-0.1,0.1-0.2,0.2-0.2,0.3v10.8c0,0.1,0.1,0.2,0.2,0.3l2.5,1.5c0.6,0.3,1.2,0.3,1.6,0.1s0.6-0.6,0.6-1.1v-10.7
		c0-0.1,0.1-0.1,0.1-0.2s0.1-0.1,0.2-0.1h1.2c0.1,0,0.2,0,0.2,0.1s0.1,0.1,0.1,0.2v10.7c0,0.9-0.2,1.6-0.7,2.2s-1.2,0.8-2.1,0.8
		c-0.3,0-0.6,0-0.8-0.1c-0.4-0.1-0.8-0.2-1.3-0.5l-2.5-1.4c-0.3-0.2-0.5-0.4-0.7-0.7s-0.3-0.6-0.3-1v-10.8c0-0.3,0.1-0.7,0.3-1
		s0.4-0.5,0.7-0.7l9.4-5.4c0.3-0.2,0.6-0.3,1-0.3s0.7,0.1,1,0.3l9.4,5.4c0.3,0.2,0.5,0.4,0.7,0.7s0.3,0.6,0.3,1v10.8
		c0,0.4-0.1,0.7-0.3,1s-0.4,0.5-0.7,0.7l-9.4,5.4c-0.3,0.2-0.6,0.3-1,0.3S49.7,226,49.4,225.8z M56.9,213.3
		c-0.6-0.4-1.7-0.7-3.2-0.9c-1-0.1-1.7-0.3-2.1-0.4s-0.7-0.2-0.9-0.4s-0.2-0.3-0.2-0.6c0-0.4,0.1-0.7,0.4-0.9c0.4-0.3,1-0.5,2-0.5
		s1.7,0.1,2.1,0.4s0.7,0.7,0.8,1.3c0,0.1,0.1,0.2,0.3,0.2h1.3c0.1,0,0.1,0,0.2-0.1s0.1-0.1,0.1-0.2c-0.1-1.1-0.5-1.9-1.3-2.5
		s-1.9-0.8-3.4-0.8c-1.4,0-2.4,0.3-3.1,0.8s-1.1,1.3-1.1,2.2s0.3,1.7,1.1,2.1c0.6,0.4,1.7,0.6,3.1,0.8s2.3,0.3,2.8,0.6
		c0.3,0.2,0.5,0.4,0.5,0.8c0,0.5-0.2,0.9-0.6,1.2s-1.2,0.4-2.2,0.4c-1.2,0-2-0.2-2.5-0.5c-0.4-0.3-0.6-0.7-0.7-1.4
		c0-0.1-0.1-0.2-0.3-0.2h-1.2c-0.1,0-0.2,0-0.2,0.1s-0.1,0.1-0.1,0.2c0,1,0.3,1.8,1,2.3c0.8,0.7,2.1,1.1,4,1.1
		c1.5,0,2.6-0.3,3.5-0.8s1.2-1.3,1.2-2.4C57.9,214.4,57.6,213.7,56.9,213.3z"/>
</g>
<g>
	<path class="st0" d="M128.9,132.6h4.1l-2.1-4.9"/>
	<path class="st0" d="M131,120l-11.3,4l1.7,14.8l9.6,5.2l9.6-5.2l1.7-14.8L131,120L131,120z M138.1,138.3h-2.6l-1.4-3.5h-6l-1.4,3.5
		h-2.6l7.1-15.6L138.1,138.3z"/>
</g>
<path class="st0" d="M118.6,211.6l11.6,12.2l-5.5-12.2H118.6z M126.2,211.6l5.3,12.1l5.3-12.1H126.2z M144,211.6h-5.7l-5.5,12.2
	L144,211.6z M126.9,210.2h9.5l-4.8-5L126.9,210.2z M139.8,204.8h-6.9l4.7,5L139.8,204.8z M123.2,204.8l2.3,5.1l4.9-5.1H123.2
	L123.2,204.8z M144,210.2l-3-4.6l-2,4.6H144L144,210.2z M119.1,210.2h5l-2-4.5L119.1,210.2z M121.8,204h19.4l4.8,7.2l-14.6,15.6
	l-14.6-15.4L121.8,204z"/>
<g>
	<path class="st0" d="M41.2,126.7v-4.2c0-0.6,0.5-1,1-1c0.6,0,1-0.5,1-1c0-0.6-0.5-1-1-1c-1.7,0-3.1,1.4-3.1,3.1v4.2
		c0,1.1-0.9,2.1-2.1,2.1c-0.6,0-1,0.5-1,1c0,0.6,0.5,1,1,1c1.1,0,2.1,0.9,2.1,2.1v4.2c0,1.7,1.4,3.1,3.1,3.1c0.6,0,1-0.5,1-1
		c0-0.6-0.5-1-1-1c-0.6,0-1-0.5-1-1v-4.2c0-1.2-0.6-2.4-1.4-3.1C40.6,129,41.2,127.9,41.2,126.7L41.2,126.7z M41.2,126.7"/>
	<path class="st0" d="M51.1,126.2c0,0.9-0.7,1.6-1.6,1.6c-0.9,0-1.6-0.7-1.6-1.6c0-0.9,0.7-1.6,1.6-1.6
		C50.4,124.6,51.1,125.3,51.1,126.2L51.1,126.2z M51.1,126.2"/>
	<path class="st0" d="M49.5,131.9c-0.6,0-1,0.5-1,1v3.1c0,0.6,0.5,1,1,1c0.6,0,1-0.5,1-1v-3.1C50.5,132.3,50.1,131.9,49.5,131.9
		L49.5,131.9z M49.5,131.9"/>
	<path class="st0" d="M62,128.7c-1.1,0-2.1-0.9-2.1-2.1v-4.2c0-0.8-0.3-1.5-0.8-2.1l-0.2-0.2c-0.6-0.5-1.3-0.8-2.1-0.8
		c-0.6,0-1,0.5-1,1c0,0.6,0.5,1,1,1c0.6,0,1,0.5,1,1v4.2c0,1.2,0.6,2.4,1.4,3.1c-0.9,0.8-1.4,1.9-1.4,3.1v4.2c0,0.6-0.5,1-1,1
		c-0.6,0-1,0.5-1,1c0,0.6,0.5,1,1,1c1.7,0,3.1-1.4,3.1-3.1v-4.2c0-1.1,0.9-2.1,2.1-2.1c0.6,0,1-0.5,1-1
		C63,129.2,62.5,128.7,62,128.7z"/>
</g>
</svg>
