<?xml version="1.0" encoding="utf-8"?>
<!-- Generator: Adobe Illustrator 22.0.1, SVG Export Plug-In . SVG Version: 6.00 Build 0)  -->
<svg version="1.1" id="Layer_1" xmlns="http://www.w3.org/2000/svg" xmlns:xlink="http://www.w3.org/1999/xlink" x="0px" y="0px"
	 viewBox="0 0 370 338.5" style="enable-background:new 0 0 370 338.5;" xml:space="preserve">
<style type="text/css">
	.st0{fill:none;stroke:#000000;stroke-width:4;stroke-miterlimit:10;}
	.st1{fill:none;stroke:#000000;stroke-width:4;stroke-linecap:round;stroke-linejoin:round;stroke-miterlimit:10;}
	.st2{clip-path:url(#SVGID_2_);}
	.st3{fill:#FFFFFF;}
	.st4{fill-rule:evenodd;clip-rule:evenodd;}
	.st5{fill-rule:evenodd;clip-rule:evenodd;fill:#FFFFFF;}
	.st6{clip-path:url(#SVGID_4_);fill:#FFFFFF;}
</style>
<g>
	<g>
		<defs>
			<rect id="SVGID_3_" x="114.4" y="23.7" width="147.9" height="296.1"/>
		</defs>
		<clipPath id="SVGID_2_">
			<use xlink:href="#SVGID_3_"  style="overflow:visible;"/>
		</clipPath>
		<path style="clip-path:url(#SVGID_2_);fill:#FFFFFF;" d="M259.8,155.1c-2.6-4.3-7.1-6.9-12.1-6.9h-50.1l14.6-113.8
			c0.6-4.6-2.1-8.8-6.5-10.2c-4.4-1.4-9,0.4-11.2,4.5l-78.4,145.6c-2.4,4.4-2.3,9.6,0.3,13.9c2.6,4.3,7.1,6.9,12.1,6.9h50.1
			L164,308.9c-0.6,4.6,2.1,8.8,6.5,10.2c1,0.3,2,0.5,3,0.5c3.4,0,6.6-1.8,8.3-5L260.1,169C262.5,164.6,262.4,159.4,259.8,155.1
			L259.8,155.1z M251.6,164.5l-77.9,144.7l15.2-118.3c0.2-1.4-0.2-2.8-1.2-3.8c-0.9-1-2.2-1.6-3.6-1.6h-55.6c-2.3,0-3.5-1.5-3.8-2.2
			c-0.4-0.7-1.2-2.4-0.1-4.4l77.9-144.7l-15.2,118.3c-0.2,1.4,0.2,2.8,1.2,3.8c0.9,1,2.2,1.6,3.6,1.6h55.6c2.3,0,3.5,1.5,3.8,2.2
			C251.9,160.7,252.7,162.4,251.6,164.5L251.6,164.5z M251.6,164.5"/>
	</g>
	<path class="st3" d="M82,326.4c-6.4,0-12.4-1.1-17.8-3.4c-5.4-2.3-10.1-5.4-13.9-9.2c-3.8-3.8-6.8-8.6-9-14
		c-2.2-5.5-3.3-11.6-3.3-18.2v-72.3c0-14.1-5.6-30.7-31.9-32v-12.1c26.2-1.3,31.9-18,31.9-32.1V59.7c0-6.6,1.1-12.6,3.2-18
		c2.1-5.3,5.2-10,9-13.9c3.8-3.8,8.4-6.9,13.8-9c5.4-2.2,11.4-3.3,17.9-3.3h12.2v12H82c-21.2,0-32.5,11.1-32.5,32.1V133
		c0,3.5-0.7,7.1-2,11c-1.4,3.9-3.3,7.6-5.6,10.9c-2.3,3.3-5.2,6.2-8.5,8.7c-3.2,2.3-13.6,5.6-17.2,6.1v3.4c3.6,0.6,14,3.8,17.1,6
		c3.2,2.3,6.1,5.2,8.5,8.5c2.5,3.3,4.4,7,5.7,10.8c1.3,3.8,2,7.5,2,11v72.3c0,21.2,11.2,32.5,32.5,32.5h12.2v12.3H82z"/>
	<path class="st3" d="M279,326.4v-12h12.2c21.2,0,32.5-11.1,32.5-32.1v-73.4c0-3.4,0.7-7.1,2-11c1.4-3.9,3.3-7.6,5.6-10.9
		c2.3-3.3,5.2-6.2,8.5-8.7c3.2-2.3,13.6-5.6,17.2-6.1v-3.4c-3.6-0.6-14-3.8-17.1-6c-3.2-2.3-6.1-5.2-8.5-8.5
		c-2.5-3.3-4.4-7-5.8-10.8c-1.3-3.8-2-7.5-2-11V60.3c0-21.2-11.2-32.5-32.5-32.5H279V15.5h12.2c6.4,0,12.4,1.1,17.8,3.4
		c5.4,2.3,10.1,5.4,13.9,9.2c3.8,3.8,6.8,8.6,9,14c2.2,5.5,3.3,11.6,3.3,18.2v72.3c0,14.1,5.6,30.7,31.9,32v12.1
		c-26.2,1.3-31.9,18-31.9,32.1v73.4c0,6.6-1.1,12.6-3.2,18c-2.1,5.3-5.2,10-9,13.9c-3.8,3.8-8.4,6.9-13.8,9
		c-5.4,2.2-11.4,3.3-17.9,3.3H279z"/>
</g>
</svg>
