<?xml version="1.0" encoding="utf-8"?>
<!-- Generator: Adobe Illustrator 22.0.1, SVG Export Plug-In . SVG Version: 6.00 Build 0)  -->
<svg version="1.1" id="Layer_1" xmlns="http://www.w3.org/2000/svg" xmlns:xlink="http://www.w3.org/1999/xlink" x="0px" y="0px"
	 viewBox="0 0 260 260" style="enable-background:new 0 0 260 260;" xml:space="preserve">
<style type="text/css">
	.st0{fill:none;stroke:#FFFFFF;stroke-width:5;stroke-miterlimit:10;}
	.st1{fill:#FFFFFF;}
	.st2{fill:none;stroke:#FFFFFF;stroke-width:4;stroke-miterlimit:10;}
	.st3{fill:none;stroke:#FFFFFF;stroke-width:5;stroke-linecap:round;stroke-miterlimit:10;}
	.st4{fill:none;stroke:#FFFFFF;stroke-width:7;stroke-linecap:round;stroke-miterlimit:10;}
	.st5{fill:none;stroke:#FFFFFF;stroke-width:7;stroke-linecap:round;stroke-linejoin:round;stroke-miterlimit:10;}
	.st6{fill:none;stroke:#FFFFFF;stroke-width:4;stroke-linecap:round;stroke-miterlimit:10;}
	.st7{fill:none;stroke:#231F20;stroke-width:5;stroke-miterlimit:10;}
	.st8{fill:#231F20;}
	.st9{fill:none;stroke:#231F20;stroke-width:4;stroke-miterlimit:10;}
	.st10{fill:none;stroke:#231F20;stroke-width:5;stroke-linecap:round;stroke-miterlimit:10;}
	.st11{fill:none;stroke:#231F20;stroke-width:7;stroke-linecap:round;stroke-miterlimit:10;}
	.st12{fill:none;stroke:#231F20;stroke-width:7;stroke-linecap:round;stroke-linejoin:round;stroke-miterlimit:10;}
	.st13{fill:none;stroke:#231F20;stroke-width:4;stroke-linecap:round;stroke-miterlimit:10;}
</style>
<path class="st0" d="M209,10H25.2C17.4,10,11,16.4,11,24.2v211.5c0,7.9,6.4,14.2,14.2,14.2h211.5c7.9,0,14.2-6.4,14.2-14.2V58.6
	L209,10z"/>
<polyline class="st0" points="208.5,10.5 208.5,60.5 250.5,60.5 "/>
<line class="st4" x1="136.3" y1="159.5" x2="136.3" y2="199.5"/>
<g>
	<line class="st4" x1="84" y1="55.8" x2="180.5" y2="55.8"/>
	<circle class="st4" cx="52" cy="55.8" r="9.5"/>
</g>
<g>
	<line class="st4" x1="84" y1="132.8" x2="180.5" y2="132.8"/>
	<circle class="st4" cx="52" cy="132.8" r="9.5"/>
</g>
<g>
	<line class="st4" x1="84" y1="94.2" x2="220.5" y2="94.2"/>
	<circle class="st4" cx="52" cy="94.2" r="9.5"/>
</g>
<polyline class="st5" points="165.3,196.5 136.3,221.5 107.3,196.5 "/>
</svg>
